<?xml version="1.0" encoding="utf-8"?>
<!-- Generator: Adobe Illustrator 22.1.0, SVG Export Plug-In . SVG Version: 6.00 Build 0)  -->
<svg version="1.1" id="Calque_1" xmlns="http://www.w3.org/2000/svg" xmlns:xlink="http://www.w3.org/1999/xlink" x="0px" y="0px"
	 viewBox="0 0 500 400" style="enable-background:new 0 0 500 400;" xml:space="preserve">
<style type="text/css">
	.st0{fill:#4456A4;}
	.st1{fill:#F6992A;}
	.st2{fill:#7FBF6A;}
	.st3{fill:#FFFFFF;}
	.st4{clip-path:url(#SVGID_2_);}
	.st5{fill:#00ACD3;}
	.st6{fill:#20C2EF;}
	.st7{stroke:#394D54;stroke-width:1.56;}
	.st8{clip-path:url(#SVGID_4_);fill:#17B5EB;}
	.st9{clip-path:url(#SVGID_6_);fill-opacity:0.17;}
	.st10{clip-path:url(#SVGID_8_);fill:#D4EDF1;}
	.st11{clip-path:url(#SVGID_10_);fill-opacity:8.500000e-02;}
	.st12{fill:none;stroke:#394D54;stroke-width:3.4;stroke-linecap:round;}
	.st13{fill:#D4EDF1;}
	.st14{fill:#394D54;}
	.st15{fill:#252F3E;}
	.st16{fill:#FF9900;}
	.st17{fill:#00AE55;}
	.st18{fill:none;stroke:#0E141A;stroke-opacity:4.000000e-02;}
</style>
<g id="Calque_3">
	<path class="st0" d="M-921.2,125c7.8,0,10.5-4.2,13.7-7.4c6.5-6.5,14.5-3.8,14.5,6.8V173h48.6c10.5,0,13.3-8,6.8-14.5
		c-3.2-3.2-7.4-5.8-7.4-13.7c0-8.7,8.9-19.8,24-19.8s24,11.1,24,19.8c0,7.8-4.2,10.5-7.4,13.7c-6.5,6.5-3.8,14.5,6.8,14.5h48.6
		v-48.6c0-10.5-8-13.3-14.5-6.8c-3.2,3.2-5.8,7.4-13.7,7.4c-8.7,0-19.8-8.9-19.8-24s11.1-24,19.8-24c7.8,0,10.5,4.2,13.7,7.4
		c6.5,6.5,14.5,3.8,14.5-6.8V29h-48.6c-10.5,0-13.3-8-6.8-14.5c3.2-3.2,7.4-5.8,7.4-13.7c0-8.7-8.9-19.8-24-19.8s-24,11.1-24,19.8
		c0,7.8,4.2,10.5,7.4,13.7c6.5,6.5,3.8,14.5-6.8,14.5H-893v48.6c0,10.5-8,13.3-14.5,6.8c-3.2-3.2-5.8-7.4-13.7-7.4
		c-8.7,0-19.8,8.9-19.8,24S-929.9,125-921.2,125z"/>
	<path class="st1" d="M-777.2,125c7.8,0,10.5-4.2,13.7-7.4c6.5-6.5,14.5-3.8,14.5,6.8V173h48.6c10.5,0,13.3-8,6.8-14.5
		c-3.2-3.2-7.4-5.8-7.4-13.7c0-8.7,8.9-19.8,24-19.8s24,11.1,24,19.8c0,7.8-4.2,10.5-7.4,13.7c-6.5,6.5-3.8,14.5,6.8,14.5h48.6
		v-48.6c0-10.5-8-13.3-14.5-6.8c-3.2,3.2-5.8,7.4-13.7,7.4c-8.7,0-19.8-8.9-19.8-24s11.1-24,19.8-24c7.8,0,10.5,4.2,13.7,7.4
		c6.5,6.5,14.5,3.8,14.5-6.8V29h-48.6c-10.5,0-13.3-8-6.8-14.5c3.2-3.2,7.4-5.8,7.4-13.7c0-8.7-8.9-19.8-24-19.8s-24,11.1-24,19.8
		c0,7.8,4.2,10.5,7.4,13.7c6.5,6.5,3.8,14.5-6.8,14.5H-749v48.6c0,10.5-8,13.3-14.5,6.8c-3.2-3.2-5.8-7.4-13.7-7.4
		c-8.7,0-19.8,8.9-19.8,24S-785.9,125-777.2,125z"/>
	<path class="st2" d="M-921.2,269c7.8,0,10.5-4.2,13.7-7.4c6.5-6.5,14.5-3.8,14.5,6.8V317h48.6c10.5,0,13.3-8,6.8-14.5
		c-3.2-3.2-7.4-5.8-7.4-13.7c0-8.7,8.9-19.8,24-19.8s24,11.1,24,19.8c0,7.8-4.2,10.5-7.4,13.7c-6.5,6.5-3.8,14.5,6.8,14.5h48.6
		v-48.6c0-10.5-8-13.3-14.5-6.8c-3.2,3.2-5.8,7.4-13.7,7.4c-8.7,0-19.8-8.9-19.8-24s11.1-24,19.8-24c7.8,0,10.5,4.2,13.7,7.4
		c6.5,6.5,14.5,3.8,14.5-6.8V173h-48.6c-10.5,0-13.3-8-6.8-14.5c3.2-3.2,7.4-5.8,7.4-13.7c0-8.7-8.9-19.8-24-19.8s-24,11.1-24,19.8
		c0,7.8,4.2,10.5,7.4,13.7c6.5,6.5,3.8,14.5-6.8,14.5H-893v48.6c0,10.5-8,13.3-14.5,6.8c-3.2-3.2-5.8-7.4-13.7-7.4
		c-8.7,0-19.8,8.9-19.8,24C-941,260.1-929.9,269-921.2,269z"/>
	<path class="st3" d="M-777.2,269c7.8,0,10.5-4.2,13.7-7.4c6.5-6.5,14.5-3.8,14.5,6.8V317h48.6c10.5,0,13.3-8,6.8-14.5
		c-3.2-3.2-7.4-5.8-7.4-13.7c0-8.7,8.9-19.8,24-19.8s24,11.1,24,19.8c0,7.8-4.2,10.5-7.4,13.7c-6.5,6.5-3.8,14.5,6.8,14.5h48.6
		v-48.6c0-10.5-8-13.3-14.5-6.8c-3.2,3.2-5.8,7.4-13.7,7.4c-8.7,0-19.8-8.9-19.8-24s11.1-24,19.8-24c7.8,0,10.5,4.2,13.7,7.4
		c6.5,6.5,14.5,3.8,14.5-6.8V173h-48.6c-10.5,0-13.3-8-6.8-14.5c3.2-3.2,7.4-5.8,7.4-13.7c0-8.7-8.9-19.8-24-19.8s-24,11.1-24,19.8
		c0,7.8,4.2,10.5,7.4,13.7c6.5,6.5,3.8,14.5-6.8,14.5H-749v48.6c0,10.5-8,13.3-14.5,6.8c-3.2-3.2-5.8-7.4-13.7-7.4
		c-8.7,0-19.8,8.9-19.8,24C-797,260.1-785.9,269-777.2,269z"/>
	<path class="st3" d="M92.8,200c8.8-4.4,9.6-14.6,0.8-23.2c-5.6-5.6-13-10.2-13-24c0-15.4,15.6-35,42.2-35h0.2h0.2
		c26.6,0,42.2,19.6,42.2,35c0,13.8-7.4,18.4-13,24c-11.6,11.4-6.6,25.6,12,25.6h85h0.2h0.2V200v-83.4c0-0.8,0-1.8-0.2-2.6
		c0-0.6,0-1-0.2-1.6l0,0c-0.8-5.6-3-9.4-6-11.8l-0.2-0.2c-0.4-0.2-0.8-0.6-1.2-0.8c-0.2,0-0.4-0.2-0.4-0.2c-0.4-0.2-0.8-0.4-1.2-0.4
		c-0.2,0-0.4-0.2-0.6-0.2c-0.4,0-0.8-0.2-1.2-0.2c-0.2,0-0.6,0-0.8-0.2c-0.4,0-0.8,0-1,0c-0.4,0-0.6,0-1,0s-0.6,0-1,0.2
		c-0.4,0-0.8,0.2-1,0.2c-0.4,0-0.6,0.2-1,0.2c-0.4,0.2-0.8,0.2-1.2,0.4s-0.6,0.2-1,0.4s-0.8,0.4-1.2,0.6c-0.2,0.2-0.6,0.4-0.8,0.4
		c-0.4,0.4-1,0.6-1.4,1c-0.2,0.2-0.4,0.4-0.8,0.6c-0.8,0.6-1.4,1.2-2,1.8c-5.6,5.6-10.2,13-24,13c-15.4,0-35-15.6-35-42.2
		s19.6-42.2,35-42.2c13.8,0,18.4,7.4,24,13c0.6,0.6,1.4,1.4,2,1.8c0.2,0.2,0.4,0.4,0.8,0.6c0.4,0.4,1,0.6,1.4,1
		c0.4,0.2,0.6,0.4,1,0.6s0.8,0.4,1.2,0.6s0.6,0.2,1,0.4s0.8,0.2,1,0.4c0.4,0.2,0.8,0.2,1,0.2c0.4,0,0.6,0.2,1,0.2s0.8,0.2,1.2,0.2
		c0.2,0,0.6,0,0.8,0c0.4,0,0.8,0,1.2,0c0.2,0,0.4,0,0.6,0c0.4,0,0.8-0.2,1.4-0.2c0.2,0,0.4,0,0.4-0.2c0.4-0.2,1-0.4,1.4-0.6
		c0,0,0.2,0,0.2-0.2c3.8-2,6.6-6.2,7.6-12.8c0-0.6,0.2-1,0.2-1.6c0-0.8,0.2-1.6,0.2-2.6V-50H0v252.2h81.6
		C86.2,202.2,89.8,201.4,92.8,200z"/>
	<path class="st3" d="M500,202.2h-82.2c-4.6,0-8.2-0.8-11-2.2c-8.8-4.4-9.6-14.6-0.8-23.2c5.6-5.6,13-10.2,13-24
		c0-15.2-15.6-34.8-42-35c-26.4,0.2-42,19.6-42,35c0,13.8,7.4,18.4,13,24c8.6,8.6,8,18.8-0.8,23.2h-0.6c-2.8,1.4-6.6,2.2-11,2.2h-85
		H250V292c2,15,14.8,18.4,25.2,7.8c5.6-5.6,10.2-13,24-13c15.4,0,35,15.6,35,42.2s-19.6,42.2-35,42.2c-13.8,0-18.4-7.4-24-13
		c-10.6-10.6-23.4-7.2-25.2,7.8v84h101h51h98V202.2z"/>
	<path class="st1" d="M250,366.2c2-15,14.8-18.4,25.2-7.8c5.6,5.6,10.2,13,24,13c15.4,0,35-15.6,35-42.2s-19.6-42.2-35-42.2
		c-13.8,0-18.4,7.4-24,13c-10.6,10.6-23.4,7.2-25.2-7.8l0,0c-0.2-1.2-0.2-2.6-0.2-4.2v-85.6h-85.2H164c-4.6,0-8.2-0.8-11-2.2
		c-8.8-4.4-9.6-14.6-0.8-23.2c5.6-5.6,13-10.2,13-24c0-15.2-15.6-34.8-42-35c-26.4,0.2-42,19.6-42,35c0,13.8,7.4,18.4,13,24
		c11.6,11.4,6.6,25.6-12,25.6h-0.6H0V302v55v93h97.4h51h101.4v-79.6C249.8,369,249.8,367.6,250,366.2z"/>
	<path class="st2" d="M250.2-50v84.2c0,0.8,0,1.8-0.2,2.6c-0.6,7.4-3.6,12.2-7.6,14.4c0,0-0.2,0-0.2,0.2c-0.4,0.2-1,0.4-1.4,0.6
		c-0.2,0-0.4,0.2-0.4,0.2c-0.4,0.2-0.8,0.2-1.4,0.2c-0.2,0-0.4,0-0.6,0c-0.4,0-0.8,0-1.2,0c-0.2,0-0.6,0-0.8,0c-0.4,0-0.8,0-1.2-0.2
		c-0.4,0-0.6-0.2-1-0.2s-0.8-0.2-1-0.2c-0.4-0.2-0.8-0.2-1-0.4c-0.4-0.2-0.6-0.2-1-0.4s-0.8-0.4-1.2-0.6s-0.6-0.4-1-0.6
		s-1-0.6-1.4-1c-0.2-0.2-0.4-0.4-0.8-0.6c-0.8-0.6-1.4-1.2-2-1.8c-5.6-5.6-10.2-13-24-13c-15.4,0-35,15.6-35,42.2s19.6,42.2,35,42.2
		c13.8,0,18.4-7.4,24-13c0.6-0.6,1.4-1.4,2-1.8c0.2-0.2,0.4-0.4,0.8-0.6c0.4-0.4,1-0.8,1.4-1c0.2-0.2,0.6-0.4,0.8-0.4
		c0.4-0.2,0.8-0.4,1.2-0.6s0.6-0.2,1-0.4s0.8-0.4,1.2-0.4c0.4-0.2,0.6-0.2,1-0.2s0.8-0.2,1-0.2c0.4,0,0.6,0,1-0.2c0.4,0,0.6,0,1,0
		s0.8,0,1,0s0.6,0,0.8,0.2c0.4,0,0.8,0.2,1.2,0.2c0.2,0,0.4,0.2,0.6,0.2c0.4,0.2,0.8,0.2,1.2,0.4c0.2,0,0.4,0.2,0.4,0.2
		c0.4,0.2,0.8,0.4,1.2,0.8l0.2,0.2c3,2.2,5.2,6.2,6,11.8l0,0l0,0c0,0.6,0.2,1,0.2,1.6c0,0.8,0.2,1.6,0.2,2.6V200h96.2
		c8.8-4.4,9.6-14.6,0.8-23.2c-5.6-5.6-13-10.2-13-24c0-15.4,15.6-35,42.2-35h0.2h0.2c26.6,0,42.2,19.6,42.2,35
		c0,13.8-7.4,18.4-13,24c-8.6,8.6-8,18.8,0.8,23.2H500v-97V48v-98H250.2z"/>
</g>
<g>
	<g>
		<g>
			<defs>
				<path id="SVGID_1_" d="M363.4,277.5V306h-13.6v14.2h-11.4c0,0.4-0.1,0.8-0.1,1.2c-0.7,7.8,0.6,14.9,3.7,21l1,1.9
					c0.6,1.1,1.4,2.2,2.1,3.2c0.8,1,1,1.6,1.5,2.3c8.2,9.2,20.5,13.7,34.6,13.7c31.3,0,57.9-13.9,69.7-45.1c8.3,0.9,16.4-1.3,20-8.4
					c-5.8-3.4-13.3-2.3-17.6-0.1l11.4-32.4L420.3,306h-14.2v-28.4h-42.7V277.5z"/>
			</defs>
			<clipPath id="SVGID_2_">
				<use xlink:href="#SVGID_1_"  style="overflow:visible;"/>
			</clipPath>
			<g class="st4">
				<g>
					<g id="g20_16_" transform="translate(0,-22.866)">
						<path id="path22_16_" class="st5" d="M393,287.4h12.3v12.3H393V287.4z"/>
						<path id="path24_16_" class="st6" d="M393,301.5h12.3v12.3H393V301.5z"/>
						<path id="path26_32_" class="st7" d="M394.5,298.6v-10.2 M396.3,298.6v-10.2 M398.2,298.6v-10.2 M400,298.6v-10.2
							 M401.9,298.6v-10.2 M403.7,298.6v-10.2"/>
						<g id="use28_8_" transform="translate(0,22.866)">
							<path id="path26_15_" class="st7" d="M394.5,312.7v-10.2 M396.3,312.7v-10.2 M398.2,312.7v-10.2 M400,312.7v-10.2
								 M401.9,312.7v-10.2 M403.7,312.7v-10.2"/>
						</g>
					</g>
					<g id="g18_8_">
						<g id="g20_7_" transform="translate(0,-22.866)">
							<path id="path22_7_" class="st5" d="M407.1,313.8h12.3v-12.3h-12.3V313.8z"/>
							<path id="path24_7_" class="st6" d="M407.1,299.6h12.3v-12.3h-12.3V299.6z"/>
							<path id="path26_14_" class="st7" d="M408.6,302.5v10.2 M410.5,302.5v10.2 M412.3,302.5v10.2 M414.2,302.5v10.2 M416,302.5
								v10.2 M417.9,302.5v10.2"/>
							<g id="use30_2_" transform="matrix(1,0,0,-1,22.866,4.572651)">
								<path id="path26_13_" class="st7" d="M408.6,288.4v10.2 M410.5,288.4v10.2 M412.3,288.4v10.2 M414.2,288.4v10.2 M416,288.4
									v10.2 M417.9,288.4v10.2"/>
							</g>
						</g>
					</g>
					<g id="Calque_1_1_">
						<g>
							<g id="g20_6_" transform="translate(0,-22.866)">
								<path id="path22_6_" class="st5" d="M336.4,315.6h12.3v12.3h-12.3V315.6z"/>
								<path id="path24_6_" class="st6" d="M336.4,329.8h12.3V342h-12.3V329.8z"/>
								<path id="path26_12_" class="st7" d="M337.9,326.9v-10.2 M339.8,326.9v-10.2 M341.6,326.9v-10.2 M343.5,326.9v-10.2
									 M345.3,326.9v-10.2 M347.2,326.9v-10.2"/>
								<g id="use28_3_" transform="translate(0,22.866)">
									<path id="path26_11_" class="st7" d="M337.9,341v-10.2 M339.8,341v-10.2 M341.6,341v-10.2 M343.5,341v-10.2 M345.3,341
										v-10.2 M347.2,341v-10.2"/>
								</g>
							</g>
							<g id="g18_3_">
								<g id="g20_5_" transform="translate(0,-22.866)">
									<path id="path22_5_" class="st5" d="M350.6,342h12.3v-12.3h-12.3V342z"/>
									<path id="path24_5_" class="st6" d="M350.6,327.9h12.3v-12.3h-12.3V327.9z"/>
									<path id="path26_10_" class="st7" d="M352.1,330.8V341 M353.9,330.8V341 M355.8,330.8V341 M357.6,330.8V341 M359.5,330.8
										V341 M361.3,330.8V341"/>
									<g id="use32_2_" transform="translate(-91.464,45.732)">
										<path id="path26_9_" class="st7" d="M352.1,316.7v10.2 M353.9,316.7v10.2 M355.8,316.7v10.2 M357.6,316.7v10.2
											 M359.5,316.7v10.2 M361.3,316.7v10.2"/>
									</g>
								</g>
							</g>
							<g>
								<g>
									<g id="g20_4_" transform="translate(0,-22.866)">
										<path id="path22_4_" class="st5" d="M364.7,315.6H377v12.3h-12.3V315.6z"/>
										<path id="path24_4_" class="st6" d="M364.7,329.8H377V342h-12.3V329.8z"/>
										<path id="path26_8_" class="st7" d="M366.2,326.9v-10.2 M368,326.9v-10.2 M369.9,326.9v-10.2 M371.8,326.9v-10.2
											 M373.6,326.9v-10.2 M375.5,326.9v-10.2"/>
										<g id="use28_2_" transform="translate(0,22.866)">
											<path id="path26_7_" class="st7" d="M366.2,341v-10.2 M368,341v-10.2 M369.9,341v-10.2 M371.8,341v-10.2 M373.6,341
												v-10.2 M375.5,341v-10.2"/>
										</g>
									</g>
									<g id="g18_2_">
										<g id="g20_3_" transform="translate(0,-22.866)">
											<path id="path22_3_" class="st5" d="M378.8,342h12.3v-12.3h-12.3V342z"/>
											<path id="path24_3_" class="st6" d="M378.8,327.9h12.3v-12.3h-12.3V327.9z"/>
											<path id="path26_6_" class="st7" d="M380.3,330.8V341 M382.2,330.8V341 M384,330.8V341 M385.9,330.8V341 M387.8,330.8
												V341 M389.6,330.8V341"/>
											<g id="use34_2_" transform="translate(-45.732,45.732)">
												<path id="path26_5_" class="st7" d="M380.3,316.7v10.2 M382.2,316.7v10.2 M384,316.7v10.2 M385.9,316.7v10.2
													 M387.8,316.7v10.2 M389.6,316.7v10.2"/>
											</g>
										</g>
									</g>
									<g>
										<g id="g16_2_">
											<g id="g20_2_" transform="translate(0,-22.866)">
												<path id="path22_2_" class="st5" d="M393,315.6h12.3v12.3H393V315.6z"/>
												<path id="path24_2_" class="st6" d="M393,329.8h12.3V342H393V329.8z"/>
												<path id="path26_4_" class="st7" d="M394.5,326.9v-10.2 M396.3,326.9v-10.2 M398.2,326.9v-10.2 M400,326.9v-10.2
													 M401.9,326.9v-10.2 M403.7,326.9v-10.2"/>
												<g id="use28_1_" transform="translate(0,22.866)">
													<path id="path26_3_" class="st7" d="M394.5,341v-10.2 M396.3,341v-10.2 M398.2,341v-10.2 M400,341v-10.2 M401.9,341
														v-10.2 M403.7,341v-10.2"/>
												</g>
											</g>
											<g id="g18_1_">
												<g id="g20_1_" transform="translate(0,-22.866)">
													<path id="path22_1_" class="st5" d="M407.1,342h12.3v-12.3h-12.3V342z"/>
													<path id="path24_1_" class="st6" d="M407.1,327.9h12.3v-12.3h-12.3V327.9z"/>
													<path id="path26_2_" class="st7" d="M408.6,330.8V341 M410.5,330.8V341 M412.3,330.8V341 M414.2,330.8V341 M416,330.8
														V341 M417.9,330.8V341"/>
													<g id="use36_2_" transform="translate(0,45.732)">
														<path id="path26_1_" class="st7" d="M408.6,316.7v10.2 M410.5,316.7v10.2 M412.3,316.7v10.2 M414.2,316.7v10.2
															 M416,316.7v10.2 M417.9,316.7v10.2"/>
													</g>
												</g>
											</g>
										</g>
										<g>
											<g>
												<defs>
													<path id="SVGID_3_" d="M363.4,277.5V306h-13.6v14.2h-11.4c0,0.4-0.1,0.8-0.1,1.2c-0.7,7.8,0.6,14.9,3.7,21l1,1.9
														c0.6,1.1,1.4,2.2,2.1,3.2c0.8,1,1,1.6,1.5,2.3c8.2,9.2,20.5,13.7,34.6,13.7c31.3,0,57.9-13.9,69.7-45.1
														c8.3,0.9,16.4-1.3,20-8.4c-5.8-3.4-13.3-2.3-17.6-0.1l11.4-32.4L420.3,306h-14.2v-28.4h-42.7V277.5z"/>
												</defs>
												<clipPath id="SVGID_4_">
													<use xlink:href="#SVGID_3_"  style="overflow:visible;"/>
												</clipPath>
												<path id="path38_2_" class="st8" d="M453.4,309.9c0.9-7.4-4.6-13.2-8-15.9c-3.9,4.6-4.6,16.5,1.6,21.5
													c-3.5,3.1-10.7,5.8-18.2,5.8h-91.5c-0.7,7.8,0,45.2,0,45.2h134.2L471,310C465.2,306.7,457.7,307.7,453.4,309.9"/>
											</g>
											<g>
												<g>
													<defs>
														<path id="SVGID_5_" d="M363.4,277.5V306h-13.6v14.2h-11.4c0,0.4-0.1,0.8-0.1,1.2c-0.7,7.8,0.6,14.9,3.7,21l1,1.9
															c0.6,1.1,1.4,2.2,2.1,3.2c0.8,1,1,1.6,1.5,2.3c8.2,9.2,20.5,13.7,34.6,13.7c31.3,0,57.9-13.9,69.7-45.1
															c8.3,0.9,16.4-1.3,20-8.4c-5.8-3.4-13.3-2.3-17.6-0.1l11.4-32.4L420.3,306h-14.2v-28.4h-42.7V277.5z"/>
													</defs>
													<clipPath id="SVGID_6_">
														<use xlink:href="#SVGID_5_"  style="overflow:visible;"/>
													</clipPath>
													<path id="path40_2_" class="st9" d="M337.4,331.3v35.3h134.2v-35.3"/>
												</g>
												<g>
													<g>
														<defs>
															<path id="SVGID_7_" d="M363.4,277.5V306h-13.6v14.2h-11.4c0,0.4-0.1,0.8-0.1,1.2c-0.7,7.8,0.6,14.9,3.7,21l1,1.9
																c0.6,1.1,1.4,2.2,2.1,3.2c0.8,1,1,1.6,1.5,2.3c8.2,9.2,20.5,13.7,34.6,13.7c31.3,0,57.9-13.9,69.7-45.1
																c8.3,0.9,16.4-1.3,20-8.4c-5.8-3.4-13.3-2.3-17.6-0.1l11.4-32.4L420.3,306h-14.2v-28.4h-42.7V277.5z"/>
														</defs>
														<clipPath id="SVGID_8_">
															<use xlink:href="#SVGID_7_"  style="overflow:visible;"/>
														</clipPath>
														<path id="path42_2_" class="st10" d="M385.2,363.4c-8.4-4-13-9.4-15.5-15.3l-25.4,1.1l13,17.3L385.2,363.4"/>
													</g>
													<g>
														<g>
															<defs>
																<path id="SVGID_9_" d="M363.4,277.5V306h-13.6v14.2h-11.4c0,0.4-0.1,0.8-0.1,1.2c-0.7,7.8,0.6,14.9,3.7,21l1,1.9
																	c0.6,1.1,1.4,2.2,2.1,3.2c0.8,1,1,1.6,1.5,2.3c8.2,9.2,20.5,13.7,34.6,13.7c31.3,0,57.9-13.9,69.7-45.1
																	c8.3,0.9,16.4-1.3,20-8.4c-5.8-3.4-13.3-2.3-17.6-0.1l11.4-32.4L420.3,306h-14.2v-28.4h-42.7V277.5z"/>
															</defs>
															<clipPath id="SVGID_10_">
																<use xlink:href="#SVGID_9_"  style="overflow:visible;"/>
															</clipPath>
															<path id="path44_2_" class="st11" d="M454,309.6L454,309.6c-12.9,16.6-31.4,31.2-51.3,38.8
																c-17.7,6.8-33.2,6.8-43.8,1.4c-1.1-0.6-2.3-1.4-3.4-2c-7.8-5.5-12.2-14.5-11.8-26.4h-6.2v45.2h134.2v-59.4h-15.5
																L454,309.6z"/>
														</g>
														<path id="path46_2_" class="st12" d="M344.6,348.7c8.8,0.5,18.1,0.6,26.3-2"/>
														<path id="path48_2_" class="st13" d="M379.6,342.4c0,1.9-1.5,3.4-3.4,3.4s-3.4-1.5-3.4-3.4s1.5-3.4,3.4-3.4
															S379.6,340.6,379.6,342.4z"/>
														<path id="path50_2_" class="st14" d="M377.1,340.2c-0.3,0.2-0.5,0.5-0.5,0.9c0,0.5,0.4,1,1,1c0.4,0,0.7-0.2,0.9-0.5
															c0.1,0.3,0.2,0.6,0.2,0.9c0,1.3-1.1,2.4-2.4,2.4s-2.4-1.1-2.4-2.4s1.1-2.4,2.4-2.4C376.5,340,376.8,340.1,377.1,340.2
															z"/>
														<path id="path52_2_" class="st14" d="M316.4,332h157.3c-3.4-0.9-10.8-2-9.6-6.5c-6.2,7.2-21.2,5.1-25,1.5
															c-4.2,6.1-28.8,3.8-30.5-1c-5.3,6.2-21.7,6.2-27,0c-1.7,4.8-26.3,7.1-30.5,1c-3.8,3.6-18.8,5.7-25-1.5
															C327.2,330,319.8,331.2,316.4,332"/>
													</g>
												</g>
											</g>
										</g>
									</g>
								</g>
							</g>
						</g>
						<g>
							<path class="st15" d="M90.3,67.5c0,1.3,0.1,2.3,0.4,3.1c0.3,0.8,0.6,1.6,1.1,2.5c0.2,0.3,0.2,0.6,0.2,0.8
								c0,0.3-0.2,0.7-0.7,1l-2.2,1.5c-0.3,0.2-0.6,0.3-0.9,0.3s-0.7-0.2-1-0.5c-0.5-0.5-0.9-1.1-1.2-1.6c-0.3-0.6-0.7-1.2-1.1-2
								c-2.7,3.2-6.1,4.8-10.2,4.8c-2.9,0-5.2-0.8-6.9-2.5c-1.7-1.7-2.6-3.9-2.6-6.6c0-2.9,1-5.3,3.1-7.1s4.9-2.7,8.5-2.7
								c1.2,0,2.4,0.1,3.7,0.3c1.3,0.2,2.6,0.4,4,0.8v-2.5c0-2.6-0.6-4.5-1.6-5.5c-1.1-1.1-3-1.6-5.6-1.6c-1.2,0-2.5,0.1-3.7,0.4
								c-1.3,0.3-2.5,0.7-3.7,1.2c-0.6,0.2-1,0.4-1.2,0.4c-0.2,0.1-0.4,0.1-0.6,0.1c-0.5,0-0.7-0.3-0.7-1.1v-1.7
								c0-0.6,0.1-1,0.2-1.2c0.2-0.2,0.5-0.5,1-0.7c1.2-0.6,2.7-1.1,4.4-1.6c1.7-0.4,3.5-0.7,5.4-0.7c4.1,0,7.1,0.9,9.1,2.8
								c1.9,1.9,2.9,4.7,2.9,8.5L90.3,67.5L90.3,67.5z M76.3,72.7c1.1,0,2.3-0.2,3.6-0.6c1.2-0.4,2.4-1.2,3.3-2.2
								c0.6-0.7,1-1.4,1.2-2.2c0.2-0.8,0.3-1.8,0.3-3v-1.5c-1-0.2-2.1-0.4-3.2-0.6c-1.1-0.1-2.2-0.2-3.3-0.2c-2.3,0-4,0.4-5.2,1.4
								c-1.1,0.9-1.7,2.2-1.7,4c0,1.6,0.4,2.8,1.3,3.7C73.5,72.3,74.7,72.7,76.3,72.7z M104,76.5c-0.6,0-1-0.1-1.3-0.3
								c-0.3-0.2-0.5-0.7-0.7-1.3l-8.1-26.7c-0.2-0.7-0.3-1.1-0.3-1.4c0-0.6,0.3-0.9,0.8-0.9h3.4c0.7,0,1.1,0.1,1.3,0.3
								c0.3,0.2,0.5,0.7,0.7,1.3l5.8,22.9l5.4-22.9c0.2-0.7,0.4-1.1,0.7-1.3c0.3-0.2,0.8-0.3,1.4-0.3h2.8c0.7,0,1.1,0.1,1.4,0.3
								s0.5,0.7,0.7,1.3l5.5,23.2l6-23.2c0.2-0.7,0.4-1.1,0.7-1.3s0.7-0.3,1.3-0.3h3.2c0.6,0,0.9,0.3,0.9,0.9c0,0.2,0,0.3-0.1,0.6
								c0,0.2-0.1,0.5-0.2,0.9L127,75c-0.2,0.7-0.4,1.1-0.7,1.3c-0.3,0.2-0.7,0.3-1.3,0.3h-3c-0.7,0-1.1-0.1-1.4-0.3
								c-0.3-0.2-0.5-0.7-0.7-1.4l-5.4-22.3l-5.3,22.3c-0.2,0.7-0.4,1.1-0.7,1.4c-0.3,0.2-0.8,0.3-1.4,0.3L104,76.5L104,76.5z
								 M148.5,77.4c-1.8,0-3.6-0.2-5.3-0.6s-3.1-0.9-4-1.4c-0.6-0.3-0.9-0.7-1.1-1c-0.1-0.3-0.2-0.7-0.2-1v-1.8
								c0-0.7,0.3-1.1,0.8-1.1c0.2,0,0.4,0,0.6,0.1c0.2,0.1,0.5,0.2,0.9,0.3c1.2,0.5,2.5,0.9,3.8,1.2c1.4,0.3,2.7,0.4,4.1,0.4
								c2.2,0,3.9-0.4,5-1.1c1.2-0.8,1.8-1.9,1.8-3.3c0-1-0.3-1.8-0.9-2.4c-0.6-0.7-1.8-1.2-3.5-1.8l-5-1.6c-2.5-0.8-4.4-2-5.5-3.5
								s-1.7-3.2-1.7-5c0-1.5,0.3-2.7,0.9-3.8c0.6-1.1,1.5-2.1,2.5-2.8c1-0.8,2.2-1.4,3.6-1.8c1.4-0.4,2.8-0.6,4.4-0.6
								c0.8,0,1.6,0,2.3,0.1c0.8,0.1,1.5,0.2,2.2,0.4s1.3,0.3,2,0.6c0.6,0.2,1.1,0.4,1.5,0.6c0.5,0.3,0.8,0.6,1,0.9
								c0.2,0.3,0.3,0.7,0.3,1.1v1.6c0,0.7-0.3,1.1-0.8,1.1c-0.3,0-0.7-0.1-1.3-0.4c-2-0.9-4.2-1.3-6.6-1.3c-2,0-3.5,0.3-4.6,1
								s-1.6,1.7-1.6,3.1c0,1,0.3,1.8,1,2.5s2,1.3,3.8,1.9l4.9,1.6c2.5,0.8,4.3,1.9,5.4,3.3c1.1,1.4,1.6,3,1.6,4.8
								c0,1.5-0.3,2.8-0.9,4c-0.6,1.2-1.5,2.2-2.5,3c-1.1,0.9-2.4,1.5-3.8,1.9C151.9,77.2,150.3,77.4,148.5,77.4z"/>
							<g>
								<path class="st16" d="M155,94.2c-11.4,8.4-27.9,12.9-42.1,12.9c-19.9,0-37.9-7.4-51.4-19.6c-1.1-1-0.1-2.3,1.2-1.5
									c14.7,8.5,32.8,13.7,51.5,13.7c12.6,0,26.5-2.6,39.3-8C155.3,90.7,156.9,92.8,155,94.2z"/>
								<path class="st16" d="M159.8,88.8c-1.5-1.9-9.6-0.9-13.3-0.4c-1.1,0.1-1.3-0.8-0.3-1.6c6.5-4.6,17.2-3.3,18.4-1.7
									c1.2,1.6-0.3,12.2-6.4,17.4c-0.9,0.8-1.8,0.4-1.4-0.7C158.1,98.4,161.2,90.7,159.8,88.8z"/>
							</g>
						</g>
						<g>
							<circle id="a_2_" class="st17" cx="375" cy="71" r="43"/>
							<path class="st3" d="M374.3,66.4l-5.4-16.8h-6l-5.4,16.7l-4.3-16.7H347l7.1,26.1h6.1l5.6-17.3l5.6,17.3h6l7.1-26.1h-6
								L374.3,66.4z M391.6,64.4h7.3c-0.1-1.4-1-3.1-3.7-3.1C392.9,61.3,391.7,63.1,391.6,64.4z M399.3,69.2l4.7,1.3
								c-0.9,3.2-3.8,5.8-8.4,5.8c-5,0-9.5-3.6-9.5-9.8c0-5.9,4.4-9.7,9.1-9.7c5.7,0,9.2,3.5,9.2,9.4c0,0.8-0.1,1.6-0.1,1.7h-12.8
								c0.1,2.1,2,3.5,4.2,3.5C397.7,71.6,398.8,70.6,399.3,69.2z"/>
						</g>
					</g>
				</g>
			</g>
		</g>
	</g>
</g>
<g>
	<circle id="a" class="st17" cx="375" cy="70.4" r="47.4"/>
	<circle class="st18" cx="375" cy="70.4" r="46.2"/>
	<path class="st3" d="M374.2,75.8l-6-18.5h-6.6l-6,18.4L351,57.4h-6.8l7.8,28.8h6.7l6.2-19.1l6.1,19.1h6.6l7.8-28.8h-6.6L374.2,75.8
		z M393.3,73.6h8.1c-0.1-1.5-1.1-3.4-4.1-3.4C394.7,70.2,393.4,72.1,393.3,73.6z M401.8,78.9l5.2,1.5c-1,3.5-4.2,6.4-9.3,6.4
		c-5.6,0-10.5-4-10.5-10.8c0-6.5,4.8-10.6,10.1-10.6c6.3,0,10.1,3.9,10.1,10.4c0,0.9-0.1,1.8-0.1,1.9h-14c0.1,2.3,2.2,3.9,4.6,3.9
		C400,81.5,401.2,80.5,401.8,78.9z"/>
</g>
<g>
	<path class="st15" d="M97.9,71.6c0,1.1,0.1,2,0.3,2.6c0.2,0.7,0.5,1.4,0.9,2.1c0.1,0.2,0.2,0.5,0.2,0.7c0,0.3-0.2,0.6-0.6,0.9
		L97,79.2c-0.3,0.2-0.5,0.3-0.8,0.3c-0.3,0-0.6-0.1-0.9-0.4c-0.4-0.4-0.8-0.9-1.1-1.4c-0.3-0.5-0.6-1.1-0.9-1.8
		C91,78.7,88.1,80,84.6,80c-2.5,0-4.5-0.7-5.9-2.1c-1.5-1.4-2.2-3.3-2.2-5.7c0-2.5,0.9-4.6,2.7-6.1s4.2-2.3,7.3-2.3
		c1,0,2,0.1,3.1,0.2c1.1,0.1,2.2,0.4,3.4,0.7v-2.2c0-2.3-0.5-3.8-1.4-4.7c-0.9-0.9-2.6-1.4-4.8-1.4c-1,0-2.1,0.1-3.2,0.4
		c-1.1,0.3-2.2,0.6-3.2,1c-0.5,0.2-0.8,0.3-1,0.4c-0.2,0.1-0.4,0.1-0.5,0.1c-0.4,0-0.6-0.3-0.6-0.9v-1.5c0-0.5,0.1-0.8,0.2-1
		c0.1-0.2,0.4-0.4,0.8-0.6c1-0.5,2.3-1,3.7-1.3c1.5-0.4,3-0.6,4.6-0.6c3.5,0,6.1,0.8,7.8,2.4c1.6,1.6,2.5,4,2.5,7.3L97.9,71.6
		L97.9,71.6z M85.9,76.1c1,0,2-0.2,3.1-0.5c1.1-0.4,2-1,2.8-1.9c0.5-0.6,0.8-1.2,1-1.9c0.2-0.7,0.3-1.6,0.3-2.6V68
		c-0.9-0.2-1.8-0.4-2.7-0.5c-0.9-0.1-1.9-0.2-2.8-0.2c-2,0-3.4,0.4-4.4,1.2s-1.5,1.9-1.5,3.4c0,1.4,0.4,2.4,1.1,3.1
		C83.5,75.8,84.5,76.1,85.9,76.1z M109.7,79.3c-0.5,0-0.9-0.1-1.1-0.3c-0.2-0.2-0.4-0.6-0.6-1.2L101,55c-0.2-0.6-0.3-1-0.3-1.2
		c0-0.5,0.2-0.7,0.7-0.7h2.9c0.6,0,0.9,0.1,1.2,0.3c0.2,0.2,0.4,0.6,0.6,1.2l5,19.6l4.6-19.6c0.1-0.6,0.3-1,0.6-1.2s0.7-0.3,1.2-0.3
		h2.4c0.6,0,0.9,0.1,1.2,0.3c0.2,0.2,0.4,0.6,0.6,1.2l4.7,19.9l5.1-19.9c0.2-0.6,0.4-1,0.6-1.2c0.2-0.2,0.6-0.3,1.2-0.3h2.8
		c0.5,0,0.7,0.2,0.7,0.7c0,0.1,0,0.3-0.1,0.5c0,0.2-0.1,0.4-0.2,0.7l-7.2,22.9c-0.2,0.6-0.4,1-0.6,1.2s-0.6,0.3-1.1,0.3h-2.6
		c-0.6,0-0.9-0.1-1.2-0.3c-0.2-0.2-0.4-0.6-0.6-1.2l-4.6-19.1L114,77.9c-0.1,0.6-0.3,1-0.6,1.2c-0.2,0.2-0.7,0.3-1.2,0.3H109.7z
		 M147.8,80.1c-1.5,0-3.1-0.2-4.6-0.5c-1.5-0.4-2.6-0.7-3.4-1.2c-0.5-0.3-0.8-0.6-0.9-0.8c-0.1-0.3-0.2-0.6-0.2-0.8v-1.5
		c0-0.6,0.2-0.9,0.7-0.9c0.2,0,0.4,0,0.5,0.1c0.2,0.1,0.4,0.2,0.7,0.3c1,0.4,2.1,0.8,3.3,1c1.2,0.2,2.3,0.4,3.5,0.4
		c1.9,0,3.3-0.3,4.3-1c1-0.7,1.5-1.6,1.5-2.8c0-0.8-0.3-1.5-0.8-2.1c-0.5-0.6-1.5-1.1-3-1.5l-4.3-1.3c-2.2-0.7-3.8-1.7-4.7-3
		c-1-1.3-1.5-2.8-1.5-4.3c0-1.2,0.3-2.3,0.8-3.3s1.2-1.8,2.1-2.4c0.9-0.7,1.9-1.2,3.1-1.5c1.2-0.4,2.4-0.5,3.7-0.5
		c0.7,0,1.3,0,2,0.1c0.7,0.1,1.3,0.2,1.9,0.3c0.6,0.1,1.2,0.3,1.7,0.5c0.5,0.2,0.9,0.4,1.2,0.5c0.4,0.2,0.7,0.5,0.9,0.7
		c0.2,0.2,0.3,0.6,0.3,1v1.4c0,0.6-0.2,0.9-0.7,0.9c-0.2,0-0.6-0.1-1.1-0.4c-1.7-0.8-3.6-1.2-5.7-1.2c-1.7,0-3,0.3-3.9,0.8
		c-0.9,0.6-1.4,1.4-1.4,2.6c0,0.8,0.3,1.5,0.9,2.1c0.6,0.6,1.7,1.1,3.3,1.6l4.2,1.3c2.1,0.7,3.7,1.6,4.6,2.8
		c0.9,1.2,1.4,2.6,1.4,4.2c0,1.3-0.3,2.4-0.8,3.4c-0.5,1-1.2,1.9-2.2,2.6c-0.9,0.7-2,1.3-3.3,1.7C150.7,79.9,149.4,80.1,147.8,80.1z
		"/>
	<g>
		<path class="st16" d="M153.5,94.6c-9.8,7.2-23.9,11-36.1,11c-17.1,0-32.5-6.3-44.1-16.8c-0.9-0.8-0.1-2,1-1.3
			c12.6,7.3,28.1,11.7,44.2,11.7c10.8,0,22.7-2.3,33.7-6.9C153.7,91.6,155.1,93.4,153.5,94.6z"/>
		<path class="st16" d="M157.5,89.9c-1.2-1.6-8.2-0.8-11.4-0.4c-0.9,0.1-1.1-0.7-0.2-1.3c5.6-3.9,14.7-2.8,15.8-1.5
			c1.1,1.3-0.3,10.5-5.5,14.9c-0.8,0.7-1.6,0.3-1.2-0.6C156.1,98.1,158.8,91.5,157.5,89.9z"/>
	</g>
</g>
</svg>
