<svg id="Calque_1" data-name="Calque 1" xmlns="http://www.w3.org/2000/svg" viewBox="0 0 500 500"><defs><style>.cls-1,.cls-7{fill:#fff;}.cls-2{fill:#7fbf6a;}.cls-3{fill:#4456a4;}.cls-4{fill:#f05539;}.cls-5{fill:#ccc;}.cls-6{fill:#d5c560;}.cls-7{font-size:28px;font-family:Roboto-Regular, Roboto;}.cls-8{fill:#515151;}</style></defs><title>ease</title><path class="cls-1" d="M92.8,200c8.8-4.4,9.6-14.6.8-23.2-5.6-5.6-13-10.2-13-24,0-15.4,15.6-35,42.2-35h.4c26.6,0,42.2,19.6,42.2,35,0,13.8-7.4,18.4-13,24-11.6,11.4-6.6,25.6,12,25.6h85.4V116.6a11.4,11.4,0,0,0-.2-2.6,4.4,4.4,0,0,0-.2-1.6h0c-.8-5.6-3-9.4-6-11.8l-.2-.2c-.4-.2-.8-.6-1.2-.8a.7.7,0,0,1-.4-.2,2.84,2.84,0,0,0-1.2-.4c-.2,0-.4-.2-.6-.2-.4,0-.8-.2-1.2-.2a1.2,1.2,0,0,1-.8-.2h-2a1.8,1.8,0,0,0-1,.2,8.66,8.66,0,0,0-1,.2c-.4,0-.6.2-1,.2-.4.2-.8.2-1.2.4s-.6.2-1,.4l-1.2.6a1.52,1.52,0,0,1-.8.4c-.4.4-1,.6-1.4,1a2.76,2.76,0,0,1-.8.6,18,18,0,0,0-2,1.8c-5.6,5.6-10.2,13-24,13-15.4,0-35-15.6-35-42.2s19.6-42.2,35-42.2c13.8,0,18.4,7.4,24,13a16.24,16.24,0,0,0,2,1.8,2.76,2.76,0,0,0,.8.6c.4.4,1,.6,1.4,1,.4.2.6.4,1,.6l1.2.6c.4.2.6.2,1,.4s.8.2,1,.4a2.17,2.17,0,0,0,1,.2c.4,0,.6.2,1,.2s.8.2,1.2.2h2.6c.4,0,.8-.2,1.4-.2.2,0,.4,0,.4-.2.4-.2,1-.4,1.4-.6a.2.2,0,0,0,.2-.2c3.8-2,6.6-6.2,7.6-12.8,0-.6.2-1,.2-1.6,0-.8.2-1.6.2-2.6V-50H0V202.2H81.6A26,26,0,0,0,92.8,200Z" transform="translate(0 50)"/><path class="cls-1" d="M500,202.2H417.8a24.39,24.39,0,0,1-11-2.2c-8.8-4.4-9.6-14.6-.8-23.2,5.6-5.6,13-10.2,13-24,0-15.2-15.6-34.8-42-35-26.4.2-42,19.6-42,35,0,13.8,7.4,18.4,13,24,8.6,8.6,8,18.8-.8,23.2h-.6a25,25,0,0,1-11,2.2H250V292c2,15,14.8,18.4,25.2,7.8,5.6-5.6,10.2-13,24-13,15.4,0,35,15.6,35,42.2s-19.6,42.2-35,42.2c-13.8,0-18.4-7.4-24-13-10.6-10.6-23.4-7.2-25.2,7.8v84H500Z" transform="translate(0 50)"/><path class="cls-2" d="M250,366.2c2-15,14.8-18.4,25.2-7.8,5.6,5.6,10.2,13,24,13,15.4,0,35-15.6,35-42.2s-19.6-42.2-35-42.2c-13.8,0-18.4,7.4-24,13-10.6,10.6-23.4,7.2-25.2-7.8h0a26.85,26.85,0,0,1-.2-4.2V202.4H164a24.39,24.39,0,0,1-11-2.2c-8.8-4.4-9.6-14.6-.8-23.2,5.6-5.6,13-10.2,13-24,0-15.2-15.6-34.8-42-35-26.4.2-42,19.6-42,35,0,13.8,7.4,18.4,13,24,11.6,11.4,6.6,25.6-12,25.6H0V450H249.8V370.4A29.54,29.54,0,0,1,250,366.2Z" transform="translate(0 50)"/><path class="cls-3" d="M250.2-50V34.2a11.4,11.4,0,0,1-.2,2.6c-.6,7.4-3.6,12.2-7.6,14.4a.2.2,0,0,0-.2.2c-.4.2-1,.4-1.4.6a.7.7,0,0,0-.4.2,3,3,0,0,1-1.4.2h-2.6a2.54,2.54,0,0,1-1.2-.2c-.4,0-.6-.2-1-.2a8.66,8.66,0,0,1-1-.2c-.4-.2-.8-.2-1-.4-.4-.2-.6-.2-1-.4l-1.2-.6c-.4-.2-.6-.4-1-.6a6.08,6.08,0,0,1-1.4-1,2.76,2.76,0,0,0-.8-.6,18,18,0,0,1-2-1.8c-5.6-5.6-10.2-13-24-13-15.4,0-35,15.6-35,42.2s19.6,42.2,35,42.2c13.8,0,18.4-7.4,24-13a16.24,16.24,0,0,1,2-1.8,2.76,2.76,0,0,1,.8-.6,6.08,6.08,0,0,1,1.4-1,1.52,1.52,0,0,1,.8-.4l1.2-.6c.4-.2.6-.2,1-.4a2.84,2.84,0,0,1,1.2-.4,1.8,1.8,0,0,1,1-.2,8.66,8.66,0,0,0,1-.2,1.8,1.8,0,0,0,1-.2h2a1.2,1.2,0,0,1,.8.2c.4,0,.8.2,1.2.2.2,0,.4.2.6.2.4.2.8.2,1.2.4a.7.7,0,0,1,.4.2,4.18,4.18,0,0,1,1.2.8l.2.2c3,2.2,5.2,6.2,6,11.8h0c0,.6.2,1,.2,1.6,0,.8.2,1.6.2,2.6V200h96.2c8.8-4.4,9.6-14.6.8-23.2-5.6-5.6-13-10.2-13-24,0-15.4,15.6-35,42.2-35h.4c26.6,0,42.2,19.6,42.2,35,0,13.8-7.4,18.4-13,24-8.6,8.6-8,18.8.8,23.2H500V-50Z" transform="translate(0 50)"/><path id="path11-2" class="cls-4" d="M159,64.27A50.46,50.46,0,1,1,108.5,13.8,50.46,50.46,0,0,1,159,64.27Z" transform="translate(0 50)"/><path id="path4207" class="cls-1" d="M102.66,69.49c.55-.35,1.08-.68,1.54-1a5.12,5.12,0,0,0,0-8.1c-.45-.35-1-.68-1.53-1-3.18-2-7.5-4.66-7.72-17.6h26.88c-.22,12.94-4.54,15.63-7.71,17.6-.56.35-1.09.68-1.54,1a5.12,5.12,0,0,0,0,8.1c.46.35,1,.68,1.54,1,3.15,2,7.44,4.64,7.7,17.38H95c.27-12.74,4.55-15.42,7.71-17.38Z" transform="translate(0 50)"/><g id="g4209"><path id="path4211" class="cls-5" d="M123.53,87c-.28-14.11-5.49-17.36-8.64-19.32-.54-.34-1-.63-1.4-.93a2.79,2.79,0,0,1,0-4.58c.39-.3.86-.59,1.4-.93,3.17-2,8.44-5.27,8.64-19.66a3.23,3.23,0,0,0,2.13-3.22A3,3,0,0,0,123,35H93.87a3,3,0,0,0-2.71,3.3,3.24,3.24,0,0,0,2.07,3.2c.19,14.41,5.47,17.71,8.65,19.69a16,16,0,0,1,1.39.92,2.79,2.79,0,0,1,0,4.58c-.39.3-.85.59-1.39.93-3.15,2-8.37,5.22-8.65,19.35a3.23,3.23,0,0,0-2.07,3.2,3.06,3.06,0,0,0,2.71,3.3H123a3.06,3.06,0,0,0,2.71-3.3A3.23,3.23,0,0,0,123.53,87ZM102.66,69.49c.55-.35,1.08-.68,1.54-1a5.12,5.12,0,0,0,0-8.1c-.45-.35-1-.68-1.53-1-3.18-2-7.5-4.66-7.72-17.6h26.88c-.22,12.94-4.54,15.63-7.71,17.6-.56.35-1.09.68-1.54,1a5.12,5.12,0,0,0,0,8.1c.46.35,1,.68,1.54,1,3.15,2,7.44,4.64,7.7,17.38H95C95.22,74.13,99.5,71.45,102.66,69.49Z" transform="translate(0 50)"/></g><path id="path4213" class="cls-6" d="M119.38,79.1H109.09V64.41h0a6.93,6.93,0,0,1,2.67-5.57,17,17,0,0,1,1.62-1.09,14.35,14.35,0,0,0,3-2.31h-16a14.23,14.23,0,0,0,3,2.28A16,16,0,0,1,105,58.84a6.93,6.93,0,0,1,2.67,5.57h0V79.1H97.39a29.42,29.42,0,0,0-.9,6.18h23.78a30.17,30.17,0,0,0-.89-6.18Z" transform="translate(0 50)"/><text class="cls-7" transform="translate(299.8 135.28)">webda config</text><path class="cls-8" d="M357.37,305.39a9.76,9.76,0,0,1-13.28,2.45,37.74,37.74,0,0,0-2.42,10,9.75,9.75,0,0,1,3.15,19.24,37.69,37.69,0,0,0,5.3,8.48l.22-.24.08-.08.16-.16,0,0a9.74,9.74,0,0,1,15.47,11.39l0,.06-.09.18a.64.64,0,0,0-.08.14,37.5,37.5,0,0,0,9.56,2.22v-.28a9.74,9.74,0,0,1,19-2.88l0,.06a37.14,37.14,0,0,0,8.24-5,9.75,9.75,0,0,1,11.39-15.47,37.41,37.41,0,0,0,2.38-9.36A9.74,9.74,0,0,1,413.79,307a37.54,37.54,0,0,0-5-8.46,9.75,9.75,0,0,1-15.42-11.73,37.55,37.55,0,0,0-9.72-2.56,9.74,9.74,0,0,1-19.25,2.7,37.49,37.49,0,0,0-8.81,5.25A9.75,9.75,0,0,1,357.37,305.39Zm21.78.12h0l.53,0h.87l.26,0h0c.3,0,.59,0,.88.07h0l.75.11h.05l.73.14h0l.41.09h0l.5.13h0l.39.12h0l.34.11h0l.08,0h0c.27.09.53.19.79.3h0c.38.16.76.33,1.12.51h0l.23.12h0q.41.21.81.45h0l.06,0h0c.23.14.45.29.67.44l.05,0,.69.5h0l0,0h0l.07.06h0a15.46,15.46,0,0,1,1.29,1.14h0l0,0h0l0,0,.08.07.09.09.17.16h0l.23.23h0l0,0,.11.11.05.05.1.1,0,.05h0l.16.17h0l.06.07h0l.32.36h0a3,3,0,0,0,.22.28v0l0,0h0l.32.43.08.1.05.06v0l0,0,0,.05h0l.05.07,0,0,.08.12h0l.23.35h0a.86.86,0,0,1,.1.16l.09.14,0,.05h0a3.79,3.79,0,0,1,.2.34h0a.25.25,0,0,1,0,.07l0,0c.05.09.1.19.14.28a.22.22,0,0,1,.05.08h0l.16.32h0l.06.12c.08.17.16.33.23.5a2.29,2.29,0,0,1,.1.23h0v0h0a1,1,0,0,0,0,.1c.06.14.11.28.16.41a1.34,1.34,0,0,1,.07.18h0l0,.07c.05.13.09.26.13.39a2.25,2.25,0,0,0,.08.24h0a.88.88,0,0,0,.05.15h0c.08.27.15.54.22.81h0a.29.29,0,0,0,0,.09c.05.23.1.46.14.69h0a.13.13,0,0,1,0,.06l0,.07h0v.07c0,.23.07.46.1.69h0a.13.13,0,0,1,0,.06h0a.17.17,0,0,1,0,.07h0v0h0v0c0,.27.06.54.07.81s0,.58,0,.87v0h0v.25c0,.07,0,.14,0,.21v0h0v.33h0v.29a.76.76,0,0,0,0,.15v.05h0a1.21,1.21,0,0,1,0,.19v.1h0v0h0v.08l0,.4h0c0,.12,0,.24,0,.36a.13.13,0,0,1,0,.06.78.78,0,0,1,0,.16v0l-.06.46s0,.05,0,.08a.59.59,0,0,1,0,.13h0V325c0,.05,0,.1,0,.15h0l-.09.41h0v0a3.21,3.21,0,0,1-.08.36h0l-.09.32v0h0l-.06.2c0,.05,0,.1-.05.16s0,.1,0,.15-.07.23-.11.34h0l-.05.12c-.06.17-.12.35-.19.52l-.09.23h0v0h0l0,.09-.17.41a.89.89,0,0,0-.08.17h0l0,.08-.18.36a2.4,2.4,0,0,0-.11.23h0l0,.08h0l0,.05h0a.25.25,0,0,1,0,.07,1.62,1.62,0,0,1-.1.18l-.1.18-.18.3h0a.35.35,0,0,1-.05.08h0c-.09.16-.2.31-.3.46l-.08.13h0l0,0h0v0h0l0,0h0l0,.06c-.14.19-.27.38-.41.56h0l0,0h0l-.05.07h0v0h0l0,0v0l-.37.44-.13.16-.16.17h0c-.14.16-.28.31-.43.46l0,0-.11.12-.07.07,0,0-.12.12v0h0l-.23.23h0l-.16.15-.05.05-.15.14h0l-.17.16-.08.07h0l-.08.07-.28.24h0l-.28.22-.05,0h0l-.51.38h0l-.07.05-.11.08-.09.07-.12.08h0l-.15.1-.2.13h0l0,0-.32.19h0l-.33.2h0l-.23.13-.24.13-.32.16h0l-.12.05-.5.23-.12,0h0l-.09,0h0l-.1,0-.41.16-.18.07h0l-.08,0h0l-.39.13-.17.06-.07,0h0l-.07,0h-.07l-.14,0-.11,0-.21.06h0l-.33.08h0l-.09,0h0l-.74.15h-.16l-.69.1h-.23l-.57.05-.22,0h-.22l-.52,0H380l-.5,0H379l-.6,0h-.48c-.51,0-1-.12-1.52-.21h0l-.18,0-.24-.05h0l-.4-.09h0l-.38-.1h0l-.86-.26h0c-.27-.09-.53-.18-.79-.29h0l0,0h0c-.23-.09-.45-.19-.68-.3h0l0,0-.63-.31h0l-.06,0h0c-.13-.06-.25-.14-.37-.21l-.07,0h0l-.3-.17h0l0,0,0,0h0l-.63-.41h0l0,0h0l-.67-.49h0a.18.18,0,0,0-.07-.05h0c-.46-.37-.89-.75-1.31-1.16l0,0a15.6,15.6,0,0,1-3.84-17.72,15.62,15.62,0,0,1,14.69-10.58Z" transform="translate(0 50)"/></svg>