<svg xmlns="http://www.w3.org/2000/svg" viewBox="0 0 600.25 450.26"><defs><style>.cls-1,.cls-2{stroke:#ccc;stroke-miterlimit:10;stroke-width:0.25px;}.cls-2{fill:none;}</style></defs><title>puzzle2</title><g id="Calque_1" data-name="Calque 1"><path class="cls-1" d="M57.58,70.12l23.8-42.37c5.13-9.12-.31-15.34-8.95-13.12,8.64-2.22,14,4.08,8.95,13.12L57.58,70.12l-23.8,42.37-.27.45.27-.45Z" transform="translate(1.13 0.13)"/><path class="cls-1" d="M47.67,0h0a21.59,21.59,0,0,0,4.47,10.7A21.59,21.59,0,0,1,47.67,0Z" transform="translate(1.13 0.13)"/><path class="cls-1" d="M56.5,14.46l-.24-.15.24.15C63.34,18.3,67.65,16,72,14.74,67.65,16,63.26,18.25,56.5,14.46Z" transform="translate(1.13 0.13)"/><path class="cls-1" d="M448.61,226.34c-4.32,1.23-8.72,3.5-15.47-.29l-.25-.15.25.15C440,229.89,444.29,227.57,448.61,226.34Z" transform="translate(1.13 0.13)"/><path class="cls-1" d="M427.63,195.43c-5.85,10.41-3.74,20.84,1.14,26.86-4.88-6-7-16.45-1.14-26.86,7.4-13.17,21.43-15.49,29-11.23l0,0,0,0C449.06,179.94,435,182.26,427.63,195.43Z" transform="translate(1.13 0.13)"/><path class="cls-1" d="M357.1,321c-7.4,13.17-2.08,26.36,5.51,30.62,6.83,3.85,11.15,1.52,15.47.29-4.33,1.23-8.72,3.51-15.47-.29C355,347.33,349.7,334.14,357.1,321s21.43-15.49,29-11.22l0,0,0,0C378.53,305.48,364.5,307.81,357.1,321Z" transform="translate(1.13 0.13)"/><path class="cls-1" d="M458,239.34l-23.81,42.37-23.8,42.37-.27.45.27-.45,23.8-42.37L458,239.34c5.12-9.12-.32-15.34-9-13.12C457.7,224,463.09,230.31,458,239.34Z" transform="translate(1.13 0.13)"/><path class="cls-1" d="M551.47,73c-.09.16-.18.3-.26.45.08-.15.17-.29.26-.45l23.81-42.37L592.48,0h0l-17.2,30.62Z" transform="translate(1.13 0.13)"/><path class="cls-1" d="M425.66,2.91l.27-.45L427.31,0h0l-1.38,2.46Z" transform="translate(1.13 0.13)"/><path class="cls-1" d="M528.55,113.79l-23.81,42.38-23.8,42.37-.27.44.27-.44,23.8-42.37,23.81-42.38c5.12-9.11-.31-15.33-9-13.12C528.23,98.46,533.62,104.76,528.55,113.79Z" transform="translate(1.13 0.13)"/><path class="cls-1" d="M519.14,100.79c-4.32,1.23-8.72,3.51-15.47-.28l-.24-.15.24.15C510.51,104.35,514.82,102,519.14,100.79Z" transform="translate(1.13 0.13)"/><path class="cls-1" d="M498.16,69.88c-5.85,10.42-3.74,20.85,1.15,26.87-4.89-6-7-16.45-1.15-26.87,7.4-13.16,21.43-15.48,29-11.22l0,0,0,0C519.59,54.4,505.56,56.72,498.16,69.88Z" transform="translate(1.13 0.13)"/><path class="cls-2" d="M339.61,450.07l.05-.07h0Z" transform="translate(1.13 0.13)"/><path class="cls-1" d="M363.68,407.25l23.81-42.37c5.12-9.11-.32-15.33-9-13.12,8.64-2.21,14,4.09,9,13.12l-23.81,42.37-23.8,42.38-.22.37h0c.07-.12.15-.24.22-.37Z" transform="translate(1.13 0.13)"/><path class="cls-1" d="M583.56,309.87l-23.8,42.37L536,394.61c-.05.1-.11.18-.16.28.05-.1.11-.18.16-.28l23.81-42.37,23.8-42.37c5.14-9.14-.34-15.37-9-13.1C583.22,294.51,588.65,300.82,583.56,309.87Z" transform="translate(1.13 0.13)"/><path class="cls-1" d="M574.17,296.86c-4.32,1.23-8.7,3.5-15.43-.25C565.55,300.41,569.86,298.09,574.17,296.86Z" transform="translate(1.13 0.13)"/><path class="cls-1" d="M504.07,422.29c8.65-2.21,14,4.09,9,13.12L504.84,450h0L513,435.41C518.15,426.3,512.72,420.08,504.07,422.29Z" transform="translate(1.13 0.13)"/><path class="cls-1" d="M482.64,391.5c-5.65,10.07-3.87,20.16.68,26.26-4.55-6.1-6.33-16.19-.68-26.26,6.27-11.16,17.31-14.52,25.15-12.7C500,377,488.91,380.34,482.64,391.5Z" transform="translate(1.13 0.13)"/><path class="cls-1" d="M509.42,379.27a16.23,16.23,0,0,0-1.63-.47A16.23,16.23,0,0,1,509.42,379.27Z" transform="translate(1.13 0.13)"/><path class="cls-1" d="M503.62,422.41c-4.31,1.23-8.69,3.49-15.41-.25C495,426,499.31,423.64,503.62,422.41Z" transform="translate(1.13 0.13)"/><path class="cls-1" d="M9.48,98.15l0,0,0,0A17.5,17.5,0,0,0-1,96.35h0A17.5,17.5,0,0,1,9.48,98.15Z" transform="translate(1.13 0.13)"/><path class="cls-1" d="M-1,141h0c.83-.26,1.64-.53,2.45-.76C.64,140.52-.17,140.78-1,141Z" transform="translate(1.13 0.13)"/><path class="cls-1" d="M30.11,20.87A12.29,12.29,0,0,1,29.54,22s0,0,0,.05,0,0,0-.05A12.29,12.29,0,0,0,30.11,20.87Z" transform="translate(1.13 0.13)"/><path class="cls-1" d="M10.85,153.29C16,144.17,10.54,138,1.9,140.17c8.64-2.22,14,4.09,9,13.12L-1,174.39h0Z" transform="translate(1.13 0.13)"/><path class="cls-1" d="M182.45,406.78c8.65-2.22,14,4.09,9,13.12L174.5,450h0l16.91-30.1C196.53,410.78,191.1,404.56,182.45,406.78Z" transform="translate(1.13 0.13)"/><path class="cls-1" d="M65.87,349.37,42.06,391.74l-23.8,42.37-.27.45.27-.45,23.8-42.37,23.81-42.37c5.12-9.12-.32-15.34-9-13.12C65.55,334,70.94,340.33,65.87,349.37Z" transform="translate(1.13 0.13)"/><path class="cls-1" d="M97.46,406.23c2.49,8.85-3.87,14.45-13,9.31C93.68,420.73,100,415.08,97.46,406.23Z" transform="translate(1.13 0.13)"/><path class="cls-1" d="M97.72,390.66c-3.87,6.89-1.48,11.21-.26,15.57C96.24,401.87,93.9,397.46,97.72,390.66Z" transform="translate(1.13 0.13)"/><path class="cls-1" d="M378.12,30c6.84,3.85,11.15,1.52,15.48.29-4.33,1.23-8.72,3.51-15.48-.29-7.46-4.19-12.71-17-5.85-30h0C365.41,13,370.66,25.78,378.12,30Z" transform="translate(1.13 0.13)"/><path class="cls-1" d="M434.86,84.56c-3.87,6.89-1.48,11.21-.26,15.57C433.38,95.77,431,91.36,434.86,84.56Z" transform="translate(1.13 0.13)"/><path class="cls-1" d="M434.6,100.13c2.48,8.85-3.87,14.45-13,9.31C430.81,114.63,437.08,109,434.6,100.13Z" transform="translate(1.13 0.13)"/><path class="cls-1" d="M100,93.92c9.24,5.19,15.52-.46,13-9.31C115.47,93.46,109.11,99.06,100,93.92Z" transform="translate(1.13 0.13)"/><path class="cls-1" d="M42.45,210.15c-1.22-4.35-3.56-8.76.26-15.56C38.84,201.47,41.23,205.8,42.45,210.15Z" transform="translate(1.13 0.13)"/><path class="cls-1" d="M29.42,219.47c9.24,5.19,15.51-.46,13-9.32C44.93,219,38.57,224.61,29.42,219.47Z" transform="translate(1.13 0.13)"/><path class="cls-1" d="M186.17,363.29a14,14,0,0,1,1.63.47A14,14,0,0,0,186.17,363.29Z" transform="translate(1.13 0.13)"/><path class="cls-1" d="M166.53,406.61C159,402.35,153.63,389.15,161,376c6.27-11.16,17.31-14.53,25.15-12.7-7.84-1.83-18.88,1.54-25.15,12.7-7.39,13.16-2.07,26.36,5.51,30.62,6.84,3.84,11.15,1.51,15.48.28C177.68,408.12,173.28,410.4,166.53,406.61Z" transform="translate(1.13 0.13)"/><path class="cls-1" d="M419.08,421.75c2.49,8.85-3.87,14.45-13,9.31C415.29,436.25,421.57,430.6,419.08,421.75Z" transform="translate(1.13 0.13)"/><path class="cls-1" d="M419.34,406.18c-3.87,6.89-1.48,11.21-.26,15.57C417.86,417.39,415.52,413,419.34,406.18Z" transform="translate(1.13 0.13)"/><path class="cls-1" d="M489.87,280.63c-3.87,6.89-1.48,11.22-.26,15.57C488.39,291.85,486.05,287.44,489.87,280.63Z" transform="translate(1.13 0.13)"/><path class="cls-1" d="M62.26,293.22c-.53-.18-1.07-.34-1.63-.47C61.19,292.88,61.73,293,62.26,293.22Z" transform="translate(1.13 0.13)"/><path class="cls-1" d="M35.48,305.45c-7.4,13.17-2.08,26.37,5.51,30.63,6.83,3.84,11.15,1.51,15.47.28-4.33,1.23-8.72,3.51-15.47-.28-7.59-4.26-12.91-17.46-5.51-30.63,6.27-11.15,17.31-14.52,25.15-12.7C52.79,290.93,41.75,294.3,35.48,305.45Z" transform="translate(1.13 0.13)"/><path class="cls-1" d="M489.61,296.2c2.49,8.85-3.87,14.46-13,9.31C485.83,310.71,492.1,305.05,489.61,296.2Z" transform="translate(1.13 0.13)"/><path class="cls-1" d="M315.59,435.29l0,0,0,0c-7.59-4.26-21.63-1.94-29,11.23A29,29,0,0,0,284.9,450h0a30.63,30.63,0,0,1,1.67-3.48C294,433.35,308,431,315.59,435.29Z" transform="translate(1.13 0.13)"/><path class="cls-1" d="M113,84.61c-1.22-4.36-3.56-8.77.26-15.57C109.37,75.93,111.76,80.25,113,84.61Z" transform="translate(1.13 0.13)"/><path class="cls-1" d="M197.91,85.17c8.68-2.26,14.1,4.06,9,13.11l-23.81,42.37L159.32,183l-.16.27.16-.27,23.8-42.37,23.81-42.37C212.06,89.14,206.59,82.91,197.91,85.17Z" transform="translate(1.13 0.13)"/><path class="cls-1" d="M182.11,85c6.81,3.8,11.11,1.47,15.43.25C193.22,86.49,188.84,88.77,182.11,85Z" transform="translate(1.13 0.13)"/><path class="cls-1" d="M106,179.91c-5.66,10.07-3.87,20.16.67,26.25-4.54-6.09-6.33-16.18-.67-26.25,6.27-11.16,17.31-14.53,25.15-12.7C123.32,165.38,112.28,168.75,106,179.91Z" transform="translate(1.13 0.13)"/><path class="cls-1" d="M132.79,167.68c-.53-.18-1.07-.34-1.63-.47C131.72,167.34,132.26,167.5,132.79,167.68Z" transform="translate(1.13 0.13)"/><path class="cls-1" d="M201.69,41.67a14.55,14.55,0,0,1,1.63.47A14.55,14.55,0,0,0,201.69,41.67Z" transform="translate(1.13 0.13)"/><path class="cls-1" d="M176.54,54.37c6.27-11.16,17.31-14.53,25.15-12.7-7.84-1.83-18.88,1.54-25.15,12.7-5.66,10.07-3.87,20.16.67,26.25C172.67,74.53,170.88,64.44,176.54,54.37Z" transform="translate(1.13 0.13)"/><path class="cls-1" d="M309.32,14c-3.87,6.89-1.49,11.21-.26,15.57C307.83,25.24,305.5,20.83,309.32,14Z" transform="translate(1.13 0.13)"/><path class="cls-1" d="M309.06,29.6c2.48,8.85-3.88,14.45-13,9.31C305.27,44.1,311.54,38.45,309.06,29.6Z" transform="translate(1.13 0.13)"/><path class="cls-1" d="M127,210.82c-4.31,1.22-8.69,3.49-15.41-.26C118.38,214.36,122.68,212,127,210.82Z" transform="translate(1.13 0.13)"/><path class="cls-1" d="M229.85,57.48l-.16.27.16-.27L253.66,15.1,262.14,0h0l-8.48,15.1Z" transform="translate(1.13 0.13)"/><path class="cls-1" d="M238.14,336.72l23.8-42.37c5.12-9.11-.31-15.34-9-13.12,8.65-2.21,14,4.09,9,13.12l-23.8,42.37-23.81,42.37c-.08.16-.17.3-.26.45.09-.15.18-.29.26-.45Z" transform="translate(1.13 0.13)"/><path class="cls-1" d="M293.54,351.22c-1.22-4.36-3.56-8.77.26-15.57C289.93,342.54,292.32,346.86,293.54,351.22Z" transform="translate(1.13 0.13)"/><path class="cls-1" d="M280.51,360.53c9.24,5.19,15.51-.46,13-9.31C296,360.07,289.66,365.67,280.51,360.53Z" transform="translate(1.13 0.13)"/><path class="cls-1" d="M155,290c9.25,5.19,15.52-.46,13-9.31C170.48,289.54,164.12,295.14,155,290Z" transform="translate(1.13 0.13)"/><path class="cls-1" d="M127.44,210.7c8.64-2.21,14,4.09,9,13.12l-23.81,42.37-23.8,42.37c-.05.1-.11.19-.16.28.05-.09.11-.18.16-.28l23.8-42.37,23.81-42.37C141.52,214.7,136.09,208.48,127.44,210.7Z" transform="translate(1.13 0.13)"/><path class="cls-1" d="M168,280.69c-1.23-4.36-3.57-8.77.25-15.57C164.38,272,166.77,276.33,168,280.69Z" transform="translate(1.13 0.13)"/><path class="cls-1" d="M237.06,281.06c-7.58-4.26-12.9-17.45-5.5-30.62,6.26-11.16,17.31-14.53,25.14-12.7-7.83-1.83-18.88,1.54-25.14,12.7-7.4,13.17-2.08,26.36,5.5,30.62,6.84,3.84,11.15,1.52,15.48.29C248.21,282.58,243.81,284.86,237.06,281.06Z" transform="translate(1.13 0.13)"/><path class="cls-1" d="M256.7,237.74a16.23,16.23,0,0,1,1.63.47A16.23,16.23,0,0,0,256.7,237.74Z" transform="translate(1.13 0.13)"/><path class="cls-1" d="M560.4,155.09c-3.86,6.89-1.48,11.21-.25,15.57C558.92,166.3,556.58,161.89,560.4,155.09Z" transform="translate(1.13 0.13)"/><path class="cls-1" d="M355.13,128.45l.27-.44,23.8-42.38L403,43.26c5.13-9.11-.31-15.33-8.95-13.12,8.64-2.21,14,4.09,8.95,13.12L379.2,85.63,355.4,128Z" transform="translate(1.13 0.13)"/><path class="cls-1" d="M364.33,210.1c-3.87,6.89-1.48,11.22-.26,15.57C362.85,221.32,360.51,216.9,364.33,210.1Z" transform="translate(1.13 0.13)"/><path class="cls-1" d="M364.07,225.67c2.48,8.85-3.88,14.46-13,9.31C360.28,240.18,366.55,234.52,364.07,225.67Z" transform="translate(1.13 0.13)"/><path class="cls-1" d="M406.11,233.73a.75.75,0,0,1,.07-.12,15.81,15.81,0,0,0,.72-1.49,15.81,15.81,0,0,1-.72,1.49A.75.75,0,0,0,406.11,233.73Z" transform="translate(1.13 0.13)"/><path class="cls-1" d="M560.15,170.66c2.48,8.85-3.88,14.45-13,9.31C556.36,185.16,562.63,179.51,560.15,170.66Z" transform="translate(1.13 0.13)"/><path class="cls-1" d="M308.67,211.18l23.8-42.37c5.13-9.12-.31-15.34-9-13.12,8.64-2.22,14,4.09,9,13.12l-23.8,42.37-23.81,42.37c-.08.16-.17.3-.26.45.09-.15.18-.29.26-.45Z" transform="translate(1.13 0.13)"/><path class="cls-1" d="M302.09,124.9c-7.4,13.16-2.08,26.36,5.5,30.62,6.84,3.84,11.15,1.52,15.48.29-4.33,1.22-8.73,3.5-15.48-.29-7.58-4.26-12.9-17.46-5.5-30.62,6.27-11.16,17.31-14.53,25.14-12.7C319.4,110.37,308.36,113.74,302.09,124.9Z" transform="translate(1.13 0.13)"/><path class="cls-1" d="M328.86,112.67a14,14,0,0,0-1.63-.47A14,14,0,0,1,328.86,112.67Z" transform="translate(1.13 0.13)"/><path class="cls-1" d="M238.53,155.14c-1.23-4.36-3.57-8.77.25-15.57C234.92,146.46,237.3,150.78,238.53,155.14Z" transform="translate(1.13 0.13)"/><path class="cls-1" d="M225.5,164.45c9.24,5.19,15.51-.46,13-9.31C241,164,234.65,169.6,225.5,164.45Z" transform="translate(1.13 0.13)"/><path class="cls-1" d="M580,253.73a16.23,16.23,0,0,0-1.63-.47A16.23,16.23,0,0,1,580,253.73Z" transform="translate(1.13 0.13)"/><path class="cls-1" d="M553.17,266c-5.65,10.07-3.87,20.16.68,26.25-4.55-6.09-6.33-16.18-.68-26.25,6.27-11.16,17.31-14.53,25.15-12.7C570.48,251.43,559.44,254.8,553.17,266Z" transform="translate(1.13 0.13)"/><path class="cls-1" d="M532.9,6.82l42.38,23.8L592.48,0h-65.6C527.45,2.4,529.39,4.85,532.9,6.82Z" transform="translate(1.13 0.13)"/><polygon class="cls-1" points="600.13 44.08 600.13 0.13 593.6 0.13 576.4 30.75 600.13 44.08"/><path class="cls-1" d="M425.66,2.91C420.46,11.64,412.4,10,410,1.29L409.62,0H372.27c-6.86,13-1.61,25.78,5.85,30,6.76,3.8,11.15,1.52,15.48.29l.09,0,.36-.09c8.64-2.21,14.08,4,8.95,13.12L379.2,85.63l42.37,23.81c9.16,5.14,15.51-.46,13-9.31-1.22-4.36-3.61-8.68.26-15.57,4.26-7.59,17.46-12.9,30.62-5.51s15.49,21.43,11.23,29c-3.87,6.89-8.81,7.1-13.16,8.32-8.85,2.48-10.33,10.83-1.18,16l42.37,23.81,23.81-42.38c5.07-9-.32-15.33-9-13.12l-.35.09-.1,0c-4.32,1.23-8.63,3.56-15.47-.28l-.24-.15c-.26-.15-.52-.32-.77-.49a15.31,15.31,0,0,1-2.33-2h0c-.35-.36-.69-.74-1-1.14-4.89-6-7-16.45-1.15-26.87,7.4-13.16,21.43-15.48,29-11.22l0,0c6.85,3.87,7.06,8.79,8.28,13.14,2.44,8.7,10.55,10.27,15.71,1.62.08-.15.17-.29.26-.45l23.81-42.37L532.9,6.82c-3.53-2-5.48-4.43-6-6.82H427.31l-1.38,2.46Z" transform="translate(1.13 0.13)"/><path class="cls-1" d="M532.9,6.82c-3.51-2-5.45-4.42-6-6.82h0C527.42,2.39,529.37,4.83,532.9,6.82Z" transform="translate(1.13 0.13)"/><path class="cls-1" d="M587.92,202.89,599,209.12V182.79c-3.18,2.87-6.7,3.23-9.91,4.13C580.24,189.4,578.76,197.75,587.92,202.89Z" transform="translate(1.13 0.13)"/><path class="cls-1" d="M551.47,73c-.09.16-.18.3-.26.45-5.21,8.73-13.27,7.08-15.71-1.62-1.22-4.35-1.52-9.32-8.28-13.14l0,0c-7.59-4.26-21.62-1.94-29,11.22-5.85,10.42-3.74,20.85,1.15,26.87.32.4.66.78,1,1.14h0a15.31,15.31,0,0,0,2.33,2c.25.17.51.34.77.49l.24.15c6.75,3.79,11.15,1.51,15.47.28l.1,0,.35-.09c8.65-2.21,14.08,4,9,13.12l-23.81,42.38L547.12,180c9.15,5.14,15.51-.46,13-9.31-1.23-4.36-3.61-8.68.25-15.57,4.27-7.58,17.46-12.9,30.63-5.51a27.13,27.13,0,0,1,8,6.68V44L575.28,30.62Z" transform="translate(1.13 0.13)"/><path class="cls-1" d="M519.59,100.67l-.35.09-.1,0,.1,0Z" transform="translate(1.13 0.13)"/><path class="cls-1" d="M535.5,71.82c-1.22-4.35-1.43-9.27-8.28-13.14,6.76,3.82,7.06,8.79,8.28,13.14,2.44,8.7,10.5,10.35,15.71,1.62C546.05,82.09,537.94,80.52,535.5,71.82Z" transform="translate(1.13 0.13)"/><path class="cls-1" d="M504.74,156.17l-42.37-23.81c-9.24-5.19-7.67-13.49,1.18-16,4.35-1.22,9.34-1.52,13.16-8.32,4.26-7.59,1.94-21.62-11.23-29S439.12,77,434.86,84.56c-3.82,6.8-1.48,11.21-.26,15.57,2.48,8.85-3.79,14.5-13,9.31L379.2,85.63,355.4,128l-.27.44c-5.2,8.74-13.27,7.08-15.71-1.62-1.22-4.35-1.52-9.34-8.32-13.16-.23-.13-.48-.26-.73-.38a13.62,13.62,0,0,0-1.51-.62,14,14,0,0,0-1.63-.47c-7.83-1.83-18.87,1.54-25.14,12.7-7.4,13.16-2.08,26.36,5.5,30.62,6.75,3.79,11.15,1.51,15.48.29l.09,0,.36-.09c8.64-2.22,14.08,4,9,13.12l-23.8,42.37L351,235c9.15,5.15,15.51-.46,13-9.31-1.22-4.35-3.61-8.68.26-15.57a14.94,14.94,0,0,1,.9-1.39,13.5,13.5,0,0,1,1.1-1.32,15,15,0,0,1,1.28-1.24c.46-.4.94-.78,1.45-1.15s1.05-.7,1.61-1a20.15,20.15,0,0,1,2.68-1.3,24.22,24.22,0,0,1,2.95-1,23.33,23.33,0,0,1,3.19-.55c.73-.08,1.48-.12,2.24-.13s1.53,0,2.31.09A26.93,26.93,0,0,1,395,204.6,25.18,25.18,0,0,1,407.39,220a21.16,21.16,0,0,1,.67,4,19.28,19.28,0,0,1-.08,3.81,17.13,17.13,0,0,1-.52,2.64,16.43,16.43,0,0,1-.56,1.63,15.81,15.81,0,0,1-.72,1.49.75.75,0,0,0-.07.12c-3.86,6.77-8.76,7-13.09,8.2-8.86,2.49-10.33,10.83-1.18,16l42.37,23.8L458,239.34c5.07-9-.32-15.34-9-13.12l-.35.09-.1,0c-4.32,1.23-8.63,3.55-15.47-.29l-.25-.15c-.25-.15-.51-.31-.76-.49a15.23,15.23,0,0,1-2.33-2v0q-.53-.54-1-1.14c-4.88-6-7-16.45-1.14-26.86,7.4-13.17,21.43-15.49,29-11.23l0,0c6.84,3.86,7.06,8.79,8.28,13.13,2.44,8.7,10.54,10.27,15.7,1.62l.27-.44Z" transform="translate(1.13 0.13)"/><path class="cls-1" d="M462.37,132.36c-9.15-5.14-7.67-13.49,1.18-16C454.7,118.87,453.13,127.17,462.37,132.36Z" transform="translate(1.13 0.13)"/><path class="cls-1" d="M463.55,116.39c4.35-1.22,9.29-1.43,13.16-8.32C472.89,114.87,467.9,115.17,463.55,116.39Z" transform="translate(1.13 0.13)"/><path class="cls-1" d="M591,149.58c-13.17-7.39-26.36-2.07-30.63,5.51-3.82,6.8-1.48,11.21-.25,15.57,2.48,8.85-3.79,14.5-13,9.31l-42.38-23.8-23.8,42.37-.27.44c-5.2,8.74-13.26,7.09-15.7-1.62-1.22-4.34-1.52-9.31-8.28-13.13l0,0c-7.59-4.26-21.62-1.94-29,11.23-5.85,10.41-3.74,20.84,1.14,26.86q.5.6,1,1.14v0a15.23,15.23,0,0,0,2.33,2c.25.18.51.34.76.49l.25.15c6.75,3.79,11.15,1.52,15.47.29l.1,0,.35-.09c8.64-2.22,14.08,4,9,13.12l-23.81,42.37,42.37,23.8c9.16,5.15,15.52-.46,13-9.31-1.22-4.35-3.61-8.68.26-15.57a14.38,14.38,0,0,1,.91-1.39,15.74,15.74,0,0,1,2.37-2.56c.46-.4.94-.78,1.45-1.15s1-.7,1.61-1a20.76,20.76,0,0,1,2.68-1.3,24.38,24.38,0,0,1,3-.95,23.07,23.07,0,0,1,3.19-.55c.73-.08,1.47-.12,2.23-.13s1.53,0,2.31.09a28.17,28.17,0,0,1,18.82,10.05,24.43,24.43,0,0,1,2.56,3.84c.35.66.66,1.32.95,2a23.93,23.93,0,0,1,1,3,23.4,23.4,0,0,1,.57,3,20,20,0,0,1-.11,5.7c-.06.3-.11.6-.18.89a14.83,14.83,0,0,1-.48,1.68,12.89,12.89,0,0,1-.64,1.57l-.38.73c-3.87,6.88-8.8,7.09-13.16,8.31-8.85,2.49-10.33,10.83-1.17,16l42.37,23.8,23.8-42.37c5.09-9.05-.34-15.36-9-13.1l-.29.07-.08,0c-4.31,1.23-8.62,3.55-15.43-.25l-.06,0-.46-.28c-.21-.13-.42-.26-.62-.41a14.46,14.46,0,0,1-1.65-1.32,17.75,17.75,0,0,1-2.1-2.36c-4.55-6.09-6.33-16.18-.68-26.25,6.27-11.16,17.31-14.53,25.15-12.7a16.23,16.23,0,0,1,1.63.47,14.46,14.46,0,0,1,1.51.62c.25.12.5.25.73.38,6.89,3.87,7.1,8.81,8.32,13.16,1.45,5.15,4.87,7.8,8.49,7.32V209.12l-11.08-6.23c-9.24-5.19-7.68-13.49,1.17-16,3.2-.9,6.74-1.31,9.91-4.15V156.26A27.13,27.13,0,0,0,591,149.58Z" transform="translate(1.13 0.13)"/><path class="cls-1" d="M589.09,186.92c-8.85,2.48-10.41,10.78-1.17,16C578.76,197.75,580.24,189.4,589.09,186.92Z" transform="translate(1.13 0.13)"/><path class="cls-1" d="M589.09,186.92c3.21-.9,6.73-1.26,9.91-4.13v0C595.83,185.61,592.29,186,589.09,186.92Z" transform="translate(1.13 0.13)"/><path class="cls-1" d="M465,197.36c-1.22-4.34-1.44-9.27-8.28-13.13,6.76,3.82,7.06,8.79,8.28,13.13,2.44,8.71,10.5,10.36,15.7,1.62C475.51,207.63,467.41,206.06,465,197.36Z" transform="translate(1.13 0.13)"/><path class="cls-1" d="M449.06,226.22l-.35.09-.1,0,.1,0Z" transform="translate(1.13 0.13)"/><path class="cls-1" d="M590.51,267.89c-1.22-4.35-1.52-9.34-8.32-13.16-.23-.13-.48-.26-.73-.38a14.46,14.46,0,0,0-1.51-.62,16.23,16.23,0,0,0-1.63-.47c-7.84-1.83-18.88,1.54-25.15,12.7-5.65,10.07-3.87,20.16.68,26.25a17.75,17.75,0,0,0,2.1,2.36,14.46,14.46,0,0,0,1.65,1.32c.2.15.41.28.62.41l.46.28.06,0c6.73,3.75,11.11,1.48,15.43.25l.08,0,.29-.07c8.68-2.27,14.16,4,9,13.1l-23.8,42.37L599,374.29V275.24C595.37,275.73,592,273.05,590.51,267.89Z" transform="translate(1.13 0.13)"/><path class="cls-1" d="M574.54,296.77l-.29.07-.08,0,.08,0Z" transform="translate(1.13 0.13)"/><path class="cls-1" d="M590.51,267.89c-1.22-4.35-1.43-9.29-8.32-13.16-.23-.13-.48-.26-.73-.38.25.12.5.25.73.38,6.8,3.82,7.1,8.81,8.32,13.16,1.45,5.16,4.86,7.84,8.49,7.35v0C595.38,275.69,592,273,590.51,267.89Z" transform="translate(1.13 0.13)"/><path class="cls-1" d="M558.74,296.61l-.06,0-.46-.28.46.28Z" transform="translate(1.13 0.13)"/><path class="cls-1" d="M556,294.57a14.46,14.46,0,0,0,1.65,1.32A14.46,14.46,0,0,1,556,294.57Z" transform="translate(1.13 0.13)"/><path class="cls-1" d="M29.28,4.43a23.86,23.86,0,0,1,1.48,4,21.74,21.74,0,0,1,.67,4c0,.33,0,.66.05,1s0,.64,0,1,0,.63,0,.95-.06.71-.11,1.06a16.57,16.57,0,0,1-.45,2.29c0,.16-.09.32-.14.48-.11.36-.23.72-.36,1.07s-.17.43-.27.64A12.29,12.29,0,0,1,29.54,22s0,0,0,.05c-3.87,6.84-8.79,7.05-13.14,8.27-8.85,2.48-10.33,10.83-1.17,16L57.58,70.12l23.8-42.37c5.08-9-.31-15.34-8.95-13.12-.12,0-.24,0-.36.09l-.09,0C67.65,16,63.34,18.3,56.5,14.46l-.24-.15c-.26-.15-.51-.32-.77-.49a15.15,15.15,0,0,1-2.32-2h0q-.52-.54-1-1.14A21.59,21.59,0,0,1,47.67,0H26.54a23.71,23.71,0,0,1,1.68,2.45C28.61,3.1,29,3.76,29.28,4.43Z" transform="translate(1.13 0.13)"/><polygon class="cls-1" points="263.27 0.13 227.9 0.13 254.78 15.23 263.27 0.13"/><path class="cls-1" d="M425.66,2.91l.27-.45L427.31,0H409.62L410,1.29C412.4,10,420.5,11.56,425.66,2.91Z" transform="translate(1.13 0.13)"/><path class="cls-1" d="M296,38.91c9.15,5.14,15.51-.46,13-9.31-1.23-4.36-3.61-8.68.26-15.57,4.26-7.59,17.45-12.9,30.62-5.51s15.49,21.43,11.22,29c-3.87,6.89-8.8,7.1-13.16,8.32-8.85,2.48-10.33,10.83-1.17,16l42.37,23.8L403,43.26c5.08-9-.31-15.33-8.95-13.12l-.36.09-.09,0c-4.33,1.23-8.64,3.56-15.48-.29-7.46-4.19-12.71-17-5.85-30H262.14l-8.48,15.1Z" transform="translate(1.13 0.13)"/><path class="cls-1" d="M410,1.29c2.45,8.7,10.51,10.35,15.71,1.62C420.5,11.56,412.4,10,410,1.29L409.62,0h0Z" transform="translate(1.13 0.13)"/><path class="cls-1" d="M393.6,30.26l.09,0,.36-.09-.36.09Z" transform="translate(1.13 0.13)"/><path class="cls-1" d="M81.38,27.75,57.58,70.12,100,93.92c9.16,5.14,15.52-.46,13-9.31-1.22-4.36-3.61-8.68.26-15.57a14.94,14.94,0,0,1,.9-1.39,15.2,15.2,0,0,1,1.1-1.33c.4-.42.82-.84,1.28-1.24s.94-.78,1.45-1.14,1-.7,1.61-1a22.11,22.11,0,0,1,2.68-1.29,21.62,21.62,0,0,1,2.95-.95l1-.23a22.87,22.87,0,0,1,3.26-.41,26.19,26.19,0,0,1,14.35,3.5,26.84,26.84,0,0,1,8.63,7.53c.46.63.89,1.27,1.28,1.92a23.3,23.3,0,0,1,3,8q.16,1,.24,2a19.37,19.37,0,0,1-.39,5.6,16.07,16.07,0,0,1-.78,2.49,12.06,12.06,0,0,1-.72,1.49c-3.87,6.89-8.81,7.1-13.16,8.32-8.85,2.48-10.33,10.83-1.18,16l42.37,23.81,23.81-42.37c5.08-9-.34-15.37-9-13.11l-.29.08-.08,0c-4.32,1.22-8.62,3.55-15.43-.25l-.06,0-.46-.28L181,84.3A14.26,14.26,0,0,1,179.32,83a17.11,17.11,0,0,1-2.11-2.35c-4.54-6.09-6.33-16.18-.67-26.25,6.27-11.16,17.31-14.53,25.15-12.7a15.29,15.29,0,0,1,3.14,1.09c.25.12.49.25.73.38,6.89,3.87,7.1,8.8,8.32,13.16,2.46,8.76,10.65,10.29,15.81,1.45l.16-.27L253.66,15.1,226.77,0H47.67a21.59,21.59,0,0,0,4.47,10.7q.49.6,1,1.14h0a15.15,15.15,0,0,0,2.32,2c.26.17.51.34.77.49l.24.15C63.26,18.25,67.65,16,72,14.74l.09,0c.12,0,.24-.06.36-.09C81.07,12.41,86.51,18.63,81.38,27.75Z" transform="translate(1.13 0.13)"/><path class="cls-1" d="M72,14.74l.09,0c.12,0,.24-.06.36-.09-.12,0-.24,0-.36.09Z" transform="translate(1.13 0.13)"/><path class="cls-1" d="M323.52,155.69l-.36.09-.09,0c-4.33,1.23-8.64,3.55-15.48-.29-7.58-4.26-12.9-17.46-5.5-30.62,6.27-11.16,17.31-14.53,25.14-12.7a14,14,0,0,1,1.63.47,13.62,13.62,0,0,1,1.51.62c.25.12.5.25.73.38,6.89,3.87,7.1,8.81,8.32,13.16,2.44,8.7,10.55,10.27,15.71,1.62l.27-.44,23.8-42.38-42.37-23.8c-9.24-5.19-7.68-13.49,1.17-16,4.36-1.22,9.34-1.52,13.16-8.32,4.27-7.59,1.94-21.62-11.22-29S313.58,6.44,309.32,14c-3.82,6.8-1.49,11.21-.26,15.57,2.48,8.85-3.79,14.5-13,9.31L253.66,15.1,229.85,57.48l-.16.27c-5.2,8.93-13.35,7.31-15.81-1.45-1.22-4.36-1.52-9.34-8.32-13.16-.24-.13-.48-.26-.73-.38a15.29,15.29,0,0,0-3.14-1.09c-7.84-1.83-18.88,1.54-25.15,12.7-5.66,10.07-3.87,20.16.67,26.25A17.11,17.11,0,0,0,179.32,83,14.26,14.26,0,0,0,181,84.3l.63.41.46.28.06,0c6.73,3.75,11.11,1.47,15.43.25l.08,0,.29-.08c8.68-2.26,14.15,4,9,13.11l-23.81,42.37,42.38,23.8c9.15,5.15,15.51-.46,13-9.31-1.23-4.36-3.61-8.68.25-15.57a13.25,13.25,0,0,1,.91-1.39,15,15,0,0,1,1.09-1.32,17,17,0,0,1,1.29-1.25c.45-.39.94-.78,1.45-1.14s1-.7,1.6-1a22.11,22.11,0,0,1,2.68-1.29,22.75,22.75,0,0,1,3-1,23.07,23.07,0,0,1,3.19-.55c.73-.08,1.48-.12,2.23-.13a22.52,22.52,0,0,1,2.31.09,27,27,0,0,1,10.92,3.46c13.16,7.39,15.48,21.43,11.22,29-3.87,6.89-8.8,7.1-13.16,8.32-8.85,2.49-10.33,10.83-1.17,16l42.37,23.81,23.8-42.37C337.55,159.78,332.16,153.47,323.52,155.69Z" transform="translate(1.13 0.13)"/><path class="cls-1" d="M323.52,155.69l-.36.09-.09,0,.09,0Z" transform="translate(1.13 0.13)"/><path class="cls-1" d="M339.42,126.83c-1.22-4.35-1.43-9.29-8.32-13.16-.23-.13-.48-.26-.73-.38.25.12.5.25.73.38,6.8,3.82,7.1,8.81,8.32,13.16,2.44,8.7,10.51,10.36,15.71,1.62C350,137.1,341.86,135.53,339.42,126.83Z" transform="translate(1.13 0.13)"/><path class="cls-1" d="M338,45.86c4.36-1.22,9.29-1.43,13.16-8.32C347.34,44.34,342.36,44.64,338,45.86Z" transform="translate(1.13 0.13)"/><path class="cls-1" d="M336.83,61.83c-9.16-5.14-7.68-13.49,1.17-16C329.15,48.34,327.59,56.64,336.83,61.83Z" transform="translate(1.13 0.13)"/><path class="cls-1" d="M181.59,84.71l.46.28.06,0-.06,0Z" transform="translate(1.13 0.13)"/><path class="cls-1" d="M181,84.3A14.26,14.26,0,0,1,179.32,83,14.26,14.26,0,0,0,181,84.3Z" transform="translate(1.13 0.13)"/><path class="cls-1" d="M197.54,85.27l.08,0,.29-.08-.29.08Z" transform="translate(1.13 0.13)"/><path class="cls-1" d="M213.88,56.3c2.46,8.76,10.61,10.38,15.81,1.45-5.16,8.84-13.35,7.31-15.81-1.45-1.22-4.36-1.43-9.29-8.32-13.16-.24-.13-.48-.26-.73-.38.25.12.49.25.73.38C212.36,47,212.66,51.94,213.88,56.3Z" transform="translate(1.13 0.13)"/><path class="cls-1" d="M434.21,281.71l-42.37-23.8c-9.24-5.2-7.68-13.49,1.18-16,4.33-1.21,9.28-1.52,13.09-8.2a.75.75,0,0,1,.07-.12,15.81,15.81,0,0,0,.72-1.49,16.43,16.43,0,0,0,.56-1.63,17.13,17.13,0,0,0,.52-2.64,19.28,19.28,0,0,0,.08-3.81,21.16,21.16,0,0,0-.67-4A25.18,25.18,0,0,0,395,204.6,26.93,26.93,0,0,0,384,201.14c-.78-.07-1.55-.09-2.31-.09s-1.51,0-2.24.13a23.33,23.33,0,0,0-3.19.55,24.22,24.22,0,0,0-2.95,1,20.15,20.15,0,0,0-2.68,1.3c-.56.32-1.1.66-1.61,1s-1,.75-1.45,1.15a15,15,0,0,0-1.28,1.24,13.5,13.5,0,0,0-1.1,1.32,14.94,14.94,0,0,0-.9,1.39c-3.82,6.8-1.48,11.22-.26,15.57,2.48,8.85-3.79,14.51-13,9.31l-42.37-23.8-23.81,42.37c-.08.16-.17.3-.26.45-5.21,8.73-13.27,7.08-15.71-1.62-1.22-4.36-1.52-9.34-8.32-13.17-.23-.13-.48-.25-.73-.38a13.62,13.62,0,0,0-1.51-.62,16.23,16.23,0,0,0-1.63-.47c-7.83-1.83-18.88,1.54-25.14,12.7-7.4,13.17-2.08,26.36,5.5,30.62,6.75,3.8,11.15,1.52,15.48.29l.09,0,.35-.09c8.65-2.22,14.08,4,9,13.12l-23.8,42.37,42.37,23.81c9.15,5.14,15.51-.46,13-9.31-1.22-4.36-3.61-8.68.26-15.57,4.26-7.59,17.46-12.91,30.62-5.51s15.49,21.43,11.23,29c-3.87,6.89-8.81,7.1-13.17,8.32-8.85,2.48-10.32,10.83-1.17,16l42.37,23.8,23.81-42.37c5.07-9-.32-15.33-9-13.12l-.35.09-.1,0c-4.32,1.23-8.64,3.56-15.47-.29C355,347.33,349.7,334.14,357.1,321s21.43-15.49,29-11.22l0,0c6.84,3.87,7.06,8.79,8.28,13.14,2.44,8.7,10.54,10.27,15.7,1.62l.27-.45Z" transform="translate(1.13 0.13)"/><path class="cls-1" d="M393,241.93c4.33-1.21,9.23-1.43,13.09-8.2C402.3,240.41,397.35,240.72,393,241.93Z" transform="translate(1.13 0.13)"/><path class="cls-1" d="M391.84,257.91c-9.15-5.15-7.68-13.49,1.18-16C384.16,244.42,382.6,252.71,391.84,257.91Z" transform="translate(1.13 0.13)"/><path class="cls-1" d="M559.76,352.24l-42.37-23.8c-9.25-5.19-7.68-13.49,1.17-16,4.36-1.22,9.34-1.51,13.16-8.31l.38-.73a12.89,12.89,0,0,0,.64-1.57,14.83,14.83,0,0,0,.48-1.68c.07-.29.12-.59.18-.89a20,20,0,0,0,.11-5.7,23.4,23.4,0,0,0-.57-3,23.93,23.93,0,0,0-1-3c-.29-.67-.6-1.33-.95-2a24.43,24.43,0,0,0-2.56-3.84,28.17,28.17,0,0,0-18.82-10.05q-1.17-.09-2.31-.09c-.76,0-1.5.05-2.23.13a23.07,23.07,0,0,0-3.19.55,24.38,24.38,0,0,0-3,.95,20.76,20.76,0,0,0-2.68,1.3c-.56.32-1.09.66-1.61,1s-1,.75-1.45,1.15a15.74,15.74,0,0,0-2.37,2.56,14.38,14.38,0,0,0-.91,1.39c-3.82,6.81-1.48,11.22-.26,15.57,2.49,8.85-3.78,14.51-13,9.31l-42.37-23.8-23.8,42.37-.27.45c-5.2,8.73-13.26,7.08-15.7-1.62-1.22-4.35-1.52-9.32-8.28-13.14l0,0c-7.59-4.27-21.62-1.94-29,11.22s-2.08,26.36,5.51,30.62c6.75,3.8,11.14,1.52,15.47.29l.1,0,.35-.09c8.64-2.21,14.08,4,9,13.12l-23.81,42.37,42.37,23.81c9.16,5.14,15.52-.46,13-9.31-1.22-4.36-3.61-8.68.26-15.57,4.26-7.59,17.46-12.9,30.62-5.51s15.49,21.43,11.23,29c-3.87,6.89-8.8,7.1-13.16,8.32-6.8,1.91-9.24,7.27-5.86,12h62.67L513,435.41c5.07-9-.31-15.33-9-13.12l-.35.09-.1,0c-4.31,1.23-8.61,3.54-15.41-.25l-.06,0-.46-.28-.62-.41a15.75,15.75,0,0,1-1.65-1.33,16.43,16.43,0,0,1-2.1-2.35c-4.55-6.1-6.33-16.19-.68-26.26,6.27-11.16,17.31-14.52,25.15-12.7a16.23,16.23,0,0,1,1.63.47,14.51,14.51,0,0,1,1.51.63c.25.12.49.24.73.38,6.89,3.87,7.1,8.8,8.32,13.16,2.46,8.76,10.66,10.29,15.81,1.45.05-.1.11-.18.16-.28Z" transform="translate(1.13 0.13)"/><path class="cls-1" d="M517.39,328.44c-9.16-5.15-7.68-13.49,1.17-16C509.71,315,508.14,323.25,517.39,328.44Z" transform="translate(1.13 0.13)"/><path class="cls-1" d="M518.56,312.46c4.36-1.22,9.29-1.43,13.16-8.31C527.9,311,522.92,311.24,518.56,312.46Z" transform="translate(1.13 0.13)"/><path class="cls-1" d="M394.44,322.91c-1.22-4.35-1.44-9.27-8.28-13.14,6.76,3.82,7.06,8.79,8.28,13.14,2.44,8.7,10.5,10.35,15.7,1.62C405,333.18,396.88,331.61,394.44,322.91Z" transform="translate(1.13 0.13)"/><path class="cls-1" d="M378.53,351.76l-.35.09-.1,0,.1,0Z" transform="translate(1.13 0.13)"/><path class="cls-1" d="M315.59,435.29l0,0c6.84,3.86,7.06,8.78,8.28,13.13a13.41,13.41,0,0,0,.52,1.55h15.23l.22-.37,23.8-42.38-42.37-23.8c-9.24-5.19-7.68-13.49,1.17-16,4.36-1.22,9.35-1.52,13.17-8.32,4.26-7.59,1.93-21.62-11.23-29s-26.36-2.08-30.62,5.51c-3.82,6.8-1.48,11.21-.26,15.57,2.48,8.85-3.79,14.5-13,9.31l-42.37-23.81-23.81,42.37c-.08.16-.17.3-.26.45-5.21,8.73-13.27,7.08-15.71-1.62-1.22-4.36-1.52-9.34-8.32-13.16-.24-.13-.48-.26-.73-.38a14.46,14.46,0,0,0-1.51-.62,14,14,0,0,0-1.63-.47c-7.84-1.83-18.88,1.54-25.15,12.7-7.39,13.16-2.07,26.36,5.51,30.62,6.75,3.79,11.15,1.51,15.48.28l.09,0,.35-.09c8.65-2.22,14.08,4,9,13.12L174.5,450H284.9a29,29,0,0,1,1.67-3.48C294,433.35,308,431,315.59,435.29Z" transform="translate(1.13 0.13)"/><path class="cls-1" d="M335.65,359.16c-3.82,6.8-8.81,7.1-13.17,8.32C326.84,366.26,331.78,366.05,335.65,359.16Z" transform="translate(1.13 0.13)"/><path class="cls-1" d="M322.48,367.48c-8.85,2.48-10.41,10.78-1.17,16C312.16,378.31,313.63,370,322.48,367.48Z" transform="translate(1.13 0.13)"/><path class="cls-1" d="M315.63,435.32l0,0c-7.59-4.26-21.63-1.94-29,11.23A30.63,30.63,0,0,0,284.9,450h39.53a13.41,13.41,0,0,1-.52-1.55C322.69,444.1,322.38,439.13,315.63,435.32Z" transform="translate(1.13 0.13)"/><path class="cls-1" d="M448,438c4.36-1.22,9.34-1.52,13.16-8.32,4.26-7.59,1.94-21.62-11.23-29s-26.36-2.08-30.62,5.51c-3.82,6.8-1.48,11.21-.26,15.57,2.49,8.85-3.79,14.5-13,9.31l-42.37-23.81-23.8,42.38c-.07.13-.15.25-.22.37H442.15C438.73,445.27,441.22,439.92,448,438Z" transform="translate(1.13 0.13)"/><path class="cls-1" d="M448,438c4.36-1.22,9.29-1.43,13.16-8.32C457.37,436.49,452.39,436.79,448,438Z" transform="translate(1.13 0.13)"/><path class="cls-1" d="M448,438c-6.81,1.91-9.3,7.26-5.88,12h0C438.79,445.28,441.23,439.92,448,438Z" transform="translate(1.13 0.13)"/><path class="cls-1" d="M323.91,448.45c-1.22-4.35-1.44-9.27-8.28-13.13,6.75,3.81,7.06,8.78,8.28,13.13a13.41,13.41,0,0,0,.52,1.55h0A13.41,13.41,0,0,1,323.91,448.45Z" transform="translate(1.13 0.13)"/><path class="cls-1" d="M536,394.61c-.05.1-.11.18-.16.28-5.2,8.92-13.35,7.31-15.81-1.45-1.22-4.36-1.52-9.34-8.32-13.16-.24-.14-.48-.26-.73-.38a14.51,14.51,0,0,0-1.51-.63,16.23,16.23,0,0,0-1.63-.47c-7.84-1.82-18.88,1.54-25.15,12.7-5.65,10.07-3.87,20.16.68,26.26a16.43,16.43,0,0,0,2.1,2.35,15.75,15.75,0,0,0,1.65,1.33l.62.41.46.28.06,0c6.72,3.74,11.1,1.48,15.41.25l.1,0,.35-.09c8.65-2.21,14.08,4,9,13.12L504.84,450H599V374.29l-39.24-22.05Z" transform="translate(1.13 0.13)"/><path class="cls-1" d="M520,393.44c-1.22-4.36-1.43-9.29-8.32-13.16-.24-.14-.48-.26-.73-.38.25.12.49.24.73.38,6.8,3.82,7.1,8.8,8.32,13.16,2.46,8.76,10.61,10.37,15.81,1.45C530.64,403.73,522.44,402.2,520,393.44Z" transform="translate(1.13 0.13)"/><path class="cls-1" d="M485.42,420.11a15.75,15.75,0,0,0,1.65,1.33A15.75,15.75,0,0,1,485.42,420.11Z" transform="translate(1.13 0.13)"/><path class="cls-1" d="M504.07,422.29l-.35.09-.1,0,.1,0Z" transform="translate(1.13 0.13)"/><path class="cls-1" d="M488.21,422.16l-.06,0-.46-.28.46.28Z" transform="translate(1.13 0.13)"/><path class="cls-1" d="M1.9,140.17l-.36.09-.09,0c-.81.23-1.62.5-2.45.76v33.34l11.85-21.1C15.93,144.26,10.54,138,1.9,140.17Z" transform="translate(1.13 0.13)"/><path class="cls-1" d="M9.48,98.15l0,0c6.84,3.87,7,8.79,8.27,13.13,2.45,8.71,10.55,10.27,15.71,1.63l.27-.45,23.8-42.37L15.21,46.31c-9.24-5.19-7.68-13.49,1.17-16,4.35-1.22,9.32-1.52,13.14-8.27,0,0,0,0,0-.05a12.29,12.29,0,0,0,.57-1.15c.1-.21.18-.43.27-.64s.25-.71.36-1.07c.05-.16.1-.32.14-.48a16.57,16.57,0,0,0,.45-2.29c.05-.35.08-.71.11-1.06s0-.63,0-.95,0-.64,0-1,0-.65-.05-1a21.74,21.74,0,0,0-.67-4,23.86,23.86,0,0,0-1.48-4c-.32-.67-.67-1.33-1.06-2A23.71,23.71,0,0,0,26.54,0H-1V96.35A17.5,17.5,0,0,1,9.48,98.15Z" transform="translate(1.13 0.13)"/><path class="cls-1" d="M16.38,30.34C7.53,32.82,6,41.12,15.21,46.31,6.05,41.17,7.53,32.82,16.38,30.34Z" transform="translate(1.13 0.13)"/><path class="cls-1" d="M29.52,22.07c-3.82,6.75-8.79,7.05-13.14,8.27C20.73,29.12,25.65,28.91,29.52,22.07Z" transform="translate(1.13 0.13)"/><path class="cls-1" d="M127.44,210.7l-.35.09-.1,0c-4.31,1.22-8.61,3.54-15.41-.26l-.06,0-.46-.28c-.21-.13-.42-.26-.63-.41a15.29,15.29,0,0,1-1.64-1.32,17.81,17.81,0,0,1-2.11-2.36c-4.54-6.09-6.33-16.18-.67-26.25,6.27-11.16,17.31-14.53,25.15-12.7.56.13,1.1.29,1.63.47a14.46,14.46,0,0,1,1.51.62c.25.12.49.25.73.38,6.89,3.87,7.1,8.81,8.32,13.17,2.46,8.75,10.65,10.29,15.81,1.44l.16-.27,23.8-42.37-42.37-23.81c-9.24-5.19-7.67-13.49,1.18-16,4.35-1.22,9.34-1.52,13.16-8.32a12.06,12.06,0,0,0,.72-1.49,16.07,16.07,0,0,0,.78-2.49A19.37,19.37,0,0,0,157,83q-.07-1-.24-2a23.3,23.3,0,0,0-3-8c-.39-.65-.82-1.29-1.28-1.92a26.84,26.84,0,0,0-8.63-7.53A26.19,26.19,0,0,0,129.51,60a22.87,22.87,0,0,0-3.26.41l-1,.23a21.62,21.62,0,0,0-2.95.95,22.11,22.11,0,0,0-2.68,1.29c-.56.33-1.1.67-1.61,1s-1,.75-1.45,1.14-.88.82-1.28,1.24a15.2,15.2,0,0,0-1.1,1.33,14.94,14.94,0,0,0-.9,1.39c-3.82,6.8-1.48,11.21-.26,15.57,2.49,8.85-3.79,14.5-13,9.31L57.58,70.12l-23.8,42.37-.27.45c-5.2,8.73-13.26,7.08-15.71-1.63C16.58,107,16.28,102,9.53,98.18l0,0A17.5,17.5,0,0,0-1,96.35V141c.83-.26,1.64-.52,2.45-.75l.09,0,.36-.09c8.64-2.22,14.08,4,9,13.12L-1,174.39v28l30.42,17.09c9.15,5.14,15.51-.46,13-9.32-1.22-4.35-3.61-8.68.26-15.56C47,187,60.17,181.68,73.33,189.08s15.49,21.43,11.23,29c-3.87,6.88-8.81,7.09-13.16,8.32-8.85,2.48-10.33,10.83-1.18,16l42.37,23.8,23.81-42.37C141.47,214.79,136.08,208.49,127.44,210.7Z" transform="translate(1.13 0.13)"/><path class="cls-1" d="M141.93,100.87c-8.85,2.48-10.42,10.78-1.18,16C131.6,111.7,133.08,103.35,141.93,100.87Z" transform="translate(1.13 0.13)"/><path class="cls-1" d="M155.09,92.55a12.06,12.06,0,0,0,.72-1.49,12.06,12.06,0,0,1-.72,1.49c-3.82,6.8-8.81,7.1-13.16,8.32C146.28,99.65,151.22,99.44,155.09,92.55Z" transform="translate(1.13 0.13)"/><path class="cls-1" d="M1.45,140.29l.09,0,.36-.09-.36.09Z" transform="translate(1.13 0.13)"/><path class="cls-1" d="M17.8,111.31c2.45,8.71,10.51,10.36,15.71,1.63-5.16,8.64-13.26,7.08-15.71-1.63-1.22-4.34-1.43-9.26-8.27-13.13C16.28,102,16.58,107,17.8,111.31Z" transform="translate(1.13 0.13)"/><path class="cls-1" d="M253,281.23l-.35.09-.09,0c-4.33,1.23-8.64,3.55-15.48-.29-7.58-4.26-12.9-17.45-5.5-30.62,6.26-11.16,17.31-14.53,25.14-12.7a16.23,16.23,0,0,1,1.63.47,13.62,13.62,0,0,1,1.51.62c.25.13.5.25.73.39,6.89,3.86,7.1,8.8,8.32,13.16,2.44,8.7,10.55,10.26,15.71,1.62.09-.15.18-.29.26-.45l23.81-42.37L266.3,187.37c-9.24-5.19-7.68-13.48,1.17-16,4.36-1.22,9.34-1.52,13.16-8.32,4.26-7.58,1.94-21.62-11.22-29a27,27,0,0,0-10.92-3.46,22.52,22.52,0,0,0-2.31-.09c-.75,0-1.5,0-2.23.13a23.07,23.07,0,0,0-3.19.55,22.75,22.75,0,0,0-3,1,22.11,22.11,0,0,0-2.68,1.29c-.56.33-1.09.67-1.6,1s-1,.75-1.45,1.14a17,17,0,0,0-1.29,1.25,15,15,0,0,0-1.09,1.32,13.25,13.25,0,0,0-.91,1.39c-3.82,6.8-1.48,11.21-.25,15.57,2.48,8.85-3.79,14.5-13,9.31l-42.38-23.8L159.32,183l-.16.27c-5.2,8.93-13.35,7.32-15.81-1.44-1.22-4.36-1.52-9.35-8.32-13.17-.24-.13-.48-.26-.73-.38a14.46,14.46,0,0,0-1.51-.62c-.53-.18-1.07-.34-1.63-.47-7.84-1.83-18.88,1.54-25.15,12.7-5.66,10.07-3.87,20.16.67,26.25a17.81,17.81,0,0,0,2.11,2.36,15.29,15.29,0,0,0,1.64,1.32c.21.15.42.28.63.41l.46.28.06,0c6.72,3.75,11.1,1.48,15.41.26l.1,0,.35-.09c8.65-2.22,14.08,4,9,13.12l-23.81,42.37L155,290c9.16,5.14,15.52-.46,13-9.31-1.23-4.36-3.62-8.69.25-15.57,4.27-7.59,17.46-12.91,30.63-5.51s15.48,21.43,11.22,29c-3.87,6.88-8.8,7.09-13.16,8.32-8.85,2.48-10.33,10.83-1.17,16l42.37,23.8,23.8-42.37C267,285.32,261.63,279,253,281.23Z" transform="translate(1.13 0.13)"/><path class="cls-1" d="M267.47,171.4c-8.85,2.49-10.41,10.78-1.17,16C257.14,182.23,258.62,173.89,267.47,171.4Z" transform="translate(1.13 0.13)"/><path class="cls-1" d="M280.63,163.08c-3.82,6.8-8.8,7.1-13.16,8.32C271.83,170.18,276.76,170,280.63,163.08Z" transform="translate(1.13 0.13)"/><path class="cls-1" d="M268.89,252.38c2.44,8.7,10.5,10.35,15.71,1.62-5.16,8.64-13.27,7.08-15.71-1.62-1.22-4.36-1.43-9.3-8.32-13.16-.23-.14-.48-.26-.73-.39.25.13.5.25.73.38C267.37,243,267.67,248,268.89,252.38Z" transform="translate(1.13 0.13)"/><path class="cls-1" d="M252.54,281.35l.09,0,.35-.09-.35.09Z" transform="translate(1.13 0.13)"/><path class="cls-1" d="M111.58,210.56l-.06,0-.46-.28.46.28Z" transform="translate(1.13 0.13)"/><path class="cls-1" d="M127.44,210.7l-.35.09-.1,0,.1,0Z" transform="translate(1.13 0.13)"/><path class="cls-1" d="M143.35,181.85c-1.22-4.36-1.43-9.3-8.32-13.17-.24-.13-.48-.26-.73-.38.25.12.49.25.73.38,6.8,3.82,7.1,8.81,8.32,13.17,2.46,8.76,10.61,10.37,15.81,1.44C154,192.14,145.81,190.6,143.35,181.85Z" transform="translate(1.13 0.13)"/><path class="cls-1" d="M108.79,208.52a15.29,15.29,0,0,0,1.64,1.32A15.29,15.29,0,0,1,108.79,208.52Z" transform="translate(1.13 0.13)"/><path class="cls-1" d="M14,343.64c-3.87,6.89-8.81,7.1-13.17,8.32a15.6,15.6,0,0,0-1.86.66v14.9c.22.14.45.28.69.41l42.37,23.81,23.81-42.37c5.07-9-.32-15.34-9-13.12a3.58,3.58,0,0,0-.35.09l-.1,0c-4.32,1.23-8.64,3.56-15.47-.28-7.59-4.26-12.91-17.46-5.51-30.63,6.27-11.15,17.31-14.52,25.15-12.7.56.13,1.1.29,1.63.47s1,.4,1.51.63c.25.12.49.25.73.38,6.88,3.87,7.09,8.8,8.32,13.16,2.45,8.76,10.65,10.29,15.81,1.45.05-.09.11-.18.16-.28l23.8-42.37-42.37-23.8c-9.24-5.19-7.67-13.49,1.18-16,4.35-1.23,9.34-1.52,13.16-8.32,4.26-7.59,1.94-21.63-11.23-29S47,187,42.71,194.59c-3.82,6.8-1.48,11.21-.26,15.56,2.48,8.86-3.79,14.51-13,9.32L-1,202.38V312.83a30.22,30.22,0,0,1,3.8,1.79C16,322,18.29,336.06,14,343.64Z" transform="translate(1.13 0.13)"/><path class="cls-1" d="M71.4,226.42c-8.85,2.48-10.42,10.78-1.18,16C61.07,237.25,62.55,228.9,71.4,226.42Z" transform="translate(1.13 0.13)"/><path class="cls-1" d="M84.56,218.1c-3.82,6.8-8.81,7.09-13.16,8.32C75.75,225.19,80.69,225,84.56,218.1Z" transform="translate(1.13 0.13)"/><path class="cls-1" d="M191.41,419.9c5.07-9-.31-15.34-9-13.12l-.35.09-.09,0c-4.33,1.23-8.64,3.56-15.48-.28C159,402.35,153.63,389.15,161,376c6.27-11.16,17.31-14.53,25.15-12.7a14,14,0,0,1,1.63.47,14.46,14.46,0,0,1,1.51.62c.25.12.49.25.73.38,6.89,3.87,7.1,8.8,8.32,13.16,2.44,8.7,10.55,10.27,15.71,1.62.09-.15.18-.29.26-.45l23.81-42.37-42.37-23.8c-9.24-5.19-7.68-13.49,1.17-16,4.36-1.23,9.34-1.52,13.16-8.32,4.26-7.59,1.94-21.62-11.22-29s-26.36-2.08-30.63,5.51c-3.82,6.8-1.48,11.21-.25,15.57,2.48,8.85-3.79,14.5-13,9.31l-42.37-23.81-23.8,42.37c-.05.1-.11.19-.16.28-5.2,8.93-13.36,7.31-15.81-1.45-1.23-4.36-1.52-9.34-8.32-13.16-.24-.13-.48-.26-.73-.38-.49-.23-1-.44-1.51-.63s-1.07-.34-1.63-.47c-7.84-1.82-18.88,1.55-25.15,12.7-7.4,13.17-2.08,26.37,5.51,30.63,6.75,3.79,11.14,1.51,15.47.28l.1,0,.35-.08c8.64-2.22,14.08,4,9,13.12L42.06,391.74l42.37,23.8c9.16,5.14,15.52-.46,13-9.31-1.22-4.36-3.61-8.68.26-15.57,4.26-7.58,17.46-12.9,30.62-5.51s15.49,21.44,11.23,29c-3.87,6.89-8.8,7.1-13.16,8.32-8.85,2.48-10.33,10.83-1.17,16L145.77,450H174.5Z" transform="translate(1.13 0.13)"/><path class="cls-1" d="M198.36,377.92c2.44,8.7,10.5,10.35,15.71,1.62-5.16,8.65-13.27,7.08-15.71-1.62-1.22-4.36-1.43-9.29-8.32-13.16-.24-.13-.48-.26-.73-.38.25.12.49.25.73.38C196.84,368.58,197.14,373.56,198.36,377.92Z" transform="translate(1.13 0.13)"/><path class="cls-1" d="M182,406.89l.09,0,.35-.09-.35.09Z" transform="translate(1.13 0.13)"/><path class="cls-1" d="M210.1,288.63c-3.82,6.8-8.8,7.09-13.16,8.32C201.3,295.72,206.23,295.51,210.1,288.63Z" transform="translate(1.13 0.13)"/><path class="cls-1" d="M196.94,297c-8.85,2.48-10.41,10.78-1.17,16C186.61,307.78,188.09,299.43,196.94,297Z" transform="translate(1.13 0.13)"/><path class="cls-1" d="M56.91,336.25l-.35.08-.1,0,.1,0A3.58,3.58,0,0,1,56.91,336.25Z" transform="translate(1.13 0.13)"/><path class="cls-1" d="M72.82,307.39c-1.23-4.36-1.44-9.29-8.32-13.16-.24-.13-.48-.26-.73-.38.25.12.49.25.73.38,6.8,3.82,7.09,8.8,8.32,13.16,2.45,8.76,10.61,10.38,15.81,1.45C83.47,317.68,75.27,316.15,72.82,307.39Z" transform="translate(1.13 0.13)"/><path class="cls-1" d="M18,434.56l.27-.45,23.8-42.37L-.31,367.93c-.24-.13-.47-.27-.69-.41v56.55c2.1,2.9,2.48,6,3.29,8.86C4.73,441.64,12.83,443.2,18,434.56Z" transform="translate(1.13 0.13)"/><path class="cls-1" d="M14,343.64c4.26-7.58,1.94-21.62-11.23-29A30.22,30.22,0,0,0-1,312.83v39.79A15.6,15.6,0,0,1,.86,352C5.22,350.74,10.21,350.44,14,343.64Z" transform="translate(1.13 0.13)"/><path class="cls-1" d="M.86,352a15.6,15.6,0,0,0-1.86.66h0A15.6,15.6,0,0,1,.86,352Z" transform="translate(1.13 0.13)"/><path class="cls-1" d="M-1,367.52h0c.22.14.45.28.69.41C-.55,367.8-.78,367.66-1,367.52Z" transform="translate(1.13 0.13)"/><path class="cls-1" d="M14,343.64c-3.82,6.8-8.81,7.1-13.17,8.32C5.22,350.74,10.16,350.53,14,343.64Z" transform="translate(1.13 0.13)"/><path class="cls-1" d="M126.41,422.49c4.36-1.22,9.34-1.52,13.16-8.32,4.26-7.58,1.94-21.62-11.23-29s-26.36-2.07-30.62,5.51c-3.82,6.8-1.48,11.21-.26,15.57,2.49,8.85-3.78,14.5-13,9.31l-42.37-23.8-23.8,42.37-.27.45c-5.2,8.73-13.26,7.08-15.7-1.63-.8-2.84-1.22-5.95-3.29-8.82V450H145.77l-20.53-11.54C116,433.27,117.56,425,126.41,422.49Z" transform="translate(1.13 0.13)"/><path class="cls-1" d="M126.41,422.49c4.36-1.22,9.29-1.43,13.16-8.32C135.75,421,130.77,421.27,126.41,422.49Z" transform="translate(1.13 0.13)"/><path class="cls-1" d="M125.24,438.46c-9.16-5.14-7.68-13.49,1.17-16C117.56,425,116,433.27,125.24,438.46Z" transform="translate(1.13 0.13)"/><path class="cls-1" d="M18,434.56c-5.16,8.64-13.26,7.08-15.7-1.63-.81-2.86-1.19-6-3.29-8.86v0c2.07,2.87,2.49,6,3.29,8.82C4.73,441.64,12.79,443.29,18,434.56Z" transform="translate(1.13 0.13)"/></g></svg>